<svg width="336" height="325" viewBox="0 0 336 325" fill="none" xmlns="http://www.w3.org/2000/svg">
<path d="M311.942 202.319C323.287 123.476 241.315 87.7348 194.267 38.5128C103.935 -56.0251 -0.134693 57.956 1.60031 141.262C2.36599 178.026 21.9332 211.829 31.8112 246.972C41.4517 302.649 106.243 328.968 156.154 316.654C181.408 310.231 207.932 310.283 232.418 300.178C272.108 282.925 307.771 248.561 311.619 205.855L311.942 202.319Z" fill="#67E0CA" fill-opacity="0.3"/>
<path d="M269.768 72.1936L228.877 43.1804C226.651 41.6054 224.105 40.8475 221.571 40.8475C217.615 40.8475 213.707 42.7067 211.244 46.1765L201.806 59.487C206.342 63.4067 211.647 71.3054 205.382 84.6633C204.115 87.3752 203.346 90.0989 202.931 92.7278L206.839 87.2212C209.432 83.5739 213.648 81.3949 218.136 81.3949C221.014 81.3949 223.773 82.2831 226.13 83.9528L230.109 86.7712C234.064 81.6436 238.446 82.9462 241.465 85.0304L263.989 102.213L272.776 89.8383C276.814 84.1423 275.476 76.2436 269.78 72.2054L269.768 72.1936Z" fill="#5BD3C1"/>
<path d="M70.2766 160.073L75.8069 150.232L75.653 150.137C74.3977 149.379 73.8767 147.84 74.4095 146.478L76.7661 140.45L77.2043 139.325L77.6424 138.2L79.7503 132.812C80.3424 131.285 82.0003 130.692 83.5872 131.095C83.599 131.095 83.6109 131.095 83.6227 131.095C84.9017 128.821 86.2516 126.524 87.578 124.381L76.2095 128.064L75.6411 128.253L75.0727 128.442L63.1714 132.291C63.3253 136.235 63.6332 140.036 64.9714 143.873C67.0793 149.948 68.8438 155.312 70.3122 160.073H70.2766Z" fill="#5BD3C1"/>
<path d="M78.1396 211.185C75.9251 210.676 74.4922 209.303 73.7699 208.45L71.9936 210.546C68.2041 213.731 64.8409 215.318 61.9396 215.318C61.1343 215.318 60.3646 215.2 59.6304 214.951C55.3317 213.53 53.8278 208.509 53.6146 207.68C43.3712 192.451 43.158 178.691 42.9685 167.618C42.9212 164.741 42.8738 162.017 42.6607 159.53C41.9738 151.75 40.6001 144.905 39.4751 140.18C34.1935 143.01 31.5172 149.299 33.4238 155.208L57.7001 230.228C59.4291 235.58 64.3909 238.991 69.7317 238.991C71.0225 238.991 72.337 238.789 73.6278 238.375L79.7857 236.385C83.7409 228.854 89.1646 217.438 92.5988 205.62C93.3804 202.92 94.1146 200.172 94.8133 197.425L85.4225 207.041C85.4225 207.041 81.4435 211.955 78.1396 211.185V211.185Z" fill="#5BD3C1"/>
<path d="M82.7105 198.228L96.2579 182.005L81.0408 199.898L82.7105 198.228Z" fill="#5BD3C1"/>
<path d="M73.2839 207.194L70.8918 209.906C70.9866 209.835 71.0695 209.776 71.1524 209.693L73.2721 207.194H73.2839Z" fill="#5BD3C1"/>
<path d="M97.5611 39.7935C94.1861 37.7449 91.3203 38.3133 89.3072 41.4514C88.1467 43.2633 86.0032 48.0238 91.2967 52.9264C91.4151 53.033 91.5572 53.0804 91.6993 53.0804C91.8532 53.0804 92.019 53.0212 92.1375 52.8909C92.3625 52.6541 92.3506 52.2751 92.1019 52.0501C87.4598 47.7514 89.2953 43.6422 90.3019 42.0791C91.9835 39.462 94.0914 39.0593 96.9453 40.7883C98.3072 41.6172 99.1717 42.6949 99.4559 43.9027C99.7046 44.9567 99.5032 46.0817 98.9111 47.0054C97.8098 48.7225 96.4835 48.237 95.7967 47.7988C94.8967 47.2185 94.3638 46.058 95.2046 44.7554C95.3822 44.483 95.2993 44.1159 95.0269 43.9383C94.7546 43.7606 94.3875 43.8435 94.2098 44.1159C92.9901 46.0106 93.7717 47.9054 95.1572 48.7935C96.5309 49.6699 98.4967 49.8356 99.9059 47.6449C100.664 46.4606 100.912 45.0041 100.605 43.6422C100.249 42.1146 99.1953 40.7764 97.5611 39.7817V39.7935Z" fill="#5BD3C1"/>
<path d="M280.604 190.781C280.023 190.864 279.467 190.734 279.041 190.426C278.567 190.083 278.271 189.538 278.176 188.851C278.129 188.531 277.833 188.295 277.513 188.342C277.193 188.389 276.968 188.685 277.004 189.005C277.146 190.024 277.608 190.841 278.342 191.374C279.017 191.871 279.881 192.072 280.758 191.942C282.38 191.717 283.979 190.568 283.623 187.987C283.434 186.601 282.676 185.322 281.551 184.493C280.284 183.558 278.614 183.226 276.719 183.534C272.812 184.174 271.023 186.459 271.533 190.166C271.829 192.309 273.285 197.306 280.509 197.602C280.509 197.602 280.521 197.602 280.533 197.602C280.852 197.602 281.113 197.354 281.125 197.034C281.137 196.702 280.888 196.43 280.556 196.418C274.233 196.17 272.954 191.847 272.705 190.012C272.279 186.933 273.617 185.251 276.921 184.718C278.496 184.458 279.846 184.718 280.852 185.464C281.717 186.104 282.309 187.099 282.451 188.176C282.723 190.201 281.409 190.687 280.604 190.793V190.781Z" fill="#5BD3C1"/>
<path d="M166.316 173.692C165.949 173.692 165.57 173.632 165.179 173.514C165.179 173.514 165.168 173.514 165.156 173.514C164.564 173.348 164.149 173.372 163.794 173.585C162.231 174.568 161.319 179.861 159.519 190.389C159.021 193.314 158.441 196.677 157.754 200.526C158.607 200.514 159.46 200.478 160.3 200.443C165.594 183.106 167.489 175.148 166.624 173.869C166.565 173.774 166.47 173.739 166.293 173.703L166.316 173.692Z" fill="#5BD3C1"/>
<path d="M136.367 194.404C134.627 195.091 132.223 195.138 130.044 194.759C127.877 194.38 125.544 193.528 124.312 192.13L123.767 195.351C127.403 196.571 131.607 197.672 136.142 198.549C136.273 197.661 136.58 195.79 136.924 194.167C136.865 194.191 136.805 194.215 136.758 194.238C136.628 194.297 136.509 194.357 136.379 194.404H136.367Z" fill="#5BD3C1"/>
<path d="M154.711 191.952C154.771 191.076 153.776 190.164 152.165 189.453C151.621 190.211 150.164 190.578 148.767 190.578C147.014 190.578 145.131 189.998 145.131 188.743L145.167 188.316C143.355 188.482 141.934 189.086 141.649 190.247C141.626 190.484 141.649 190.72 141.709 190.934C141.709 190.934 141.709 190.934 141.709 190.945C141.803 191.265 142.005 191.573 142.265 191.845C142.289 191.869 142.324 191.893 142.348 191.916C142.467 192.035 142.597 192.141 142.739 192.248C142.881 192.355 143.023 192.449 143.189 192.544C143.189 192.544 143.213 192.556 143.224 192.568C144.326 193.207 145.853 193.645 147.417 193.847C151.182 194.344 154.522 193.503 154.723 192.011C154.723 191.987 154.723 191.964 154.723 191.928L154.711 191.952Z" fill="#F3F5F7"/>
<path d="M134.84 188.815L134.745 189.182C134.508 189.916 133.727 190.2 132.791 190.2C132.128 190.2 131.394 190.058 130.707 189.833C129.866 189.561 129.108 189.158 128.575 188.696C128.137 188.329 127.936 187.986 127.841 187.69C126.029 187.855 124.774 188.448 124.608 189.336C124.336 190.816 127.249 192.652 130.979 193.362C132.767 193.705 134.627 193.729 135.917 193.303C136.391 193.149 136.782 192.912 137.078 192.616C137.208 192.486 137.303 192.355 137.386 192.213C137.469 192.071 137.552 191.917 137.587 191.752C137.67 190.555 136.51 189.537 134.852 188.815H134.84Z" fill="#F3F5F7"/>
<path d="M130.849 95.7125L128.705 80.7204C127.663 71.9217 128.374 64.8519 130.103 59.1796L80.1644 66.2967C73.2486 67.2796 68.4407 73.6861 69.4236 80.6019L76.0197 126.881L88.5486 122.831C89.2947 121.67 90.0289 120.557 90.7157 119.562C95.3815 112.824 107.271 107.176 118.035 111.32C117.574 111.687 117.135 112.066 116.721 112.445C116.247 112.872 115.809 113.31 115.395 113.76C114.968 114.222 114.578 114.684 114.199 115.145C113.808 115.631 113.453 116.116 113.121 116.614C112.884 116.957 112.659 117.312 112.446 117.656C112.351 117.822 112.257 117.987 112.162 118.141C112.043 118.355 111.913 118.568 111.807 118.781C111.759 118.876 111.712 118.97 111.664 119.077C111.629 119.148 111.593 119.219 111.558 119.278C111.487 119.432 111.392 119.586 111.321 119.74C111.321 119.764 111.297 119.787 111.285 119.799C111.203 119.989 111.132 120.166 111.049 120.356C110.895 120.723 110.753 121.078 110.622 121.422C110.587 121.516 110.551 121.623 110.516 121.718C110.338 122.215 110.172 122.712 110.042 123.174C109.853 123.826 109.71 124.441 109.592 125.022C109.509 125.424 109.438 125.815 109.391 126.17C109.355 126.431 109.343 126.691 109.32 126.964C109.249 127.639 109.189 128.314 109.178 128.989C109.178 129.391 109.178 129.782 109.189 130.173C109.189 130.493 109.189 130.812 109.225 131.12C109.284 131.89 109.379 132.66 109.509 133.406C109.663 134.259 109.876 135.087 110.137 135.893C110.457 136.887 110.835 137.823 111.297 138.699C111.712 139.493 112.162 140.251 112.683 140.926C112.825 141.103 112.979 141.257 113.121 141.423C113.263 141.589 113.417 141.755 113.559 141.909C113.725 142.086 113.867 142.276 114.045 142.441C114.163 142.548 114.305 142.595 114.447 142.595C114.601 142.595 114.767 142.536 114.885 142.406C115.11 142.169 115.099 141.79 114.862 141.565C114.566 141.293 114.317 140.973 114.045 140.665C113.903 140.499 113.737 140.345 113.607 140.168C113.571 140.12 113.535 140.049 113.5 140.002C113.393 139.86 113.299 139.706 113.204 139.552C112.825 138.995 112.493 138.415 112.185 137.787C112.032 137.468 111.866 137.16 111.724 136.816C111.392 135.999 111.132 135.123 110.918 134.223C110.895 134.14 110.883 134.057 110.859 133.974C110.705 133.287 110.587 132.589 110.504 131.878C110.433 131.262 110.385 130.635 110.374 129.995C110.374 129.889 110.374 129.794 110.374 129.687C110.374 129.001 110.397 128.326 110.457 127.627C110.492 127.201 110.516 126.762 110.575 126.336C110.61 126.123 110.646 125.898 110.693 125.661C110.8 125.093 110.93 124.465 111.108 123.802C111.25 123.293 111.416 122.76 111.605 122.203C111.629 122.144 111.653 122.085 111.676 122.026C111.807 121.647 111.96 121.268 112.126 120.889C112.209 120.699 112.28 120.522 112.363 120.332C112.446 120.155 112.541 119.977 112.624 119.799C112.718 119.598 112.825 119.397 112.932 119.184C112.979 119.089 113.038 118.994 113.085 118.911C113.121 118.852 113.157 118.781 113.192 118.722C113.275 118.568 113.37 118.414 113.453 118.26C113.547 118.106 113.642 117.94 113.737 117.786C113.867 117.585 113.997 117.384 114.139 117.182C114.471 116.697 114.826 116.211 115.217 115.726C115.501 115.37 115.821 115.015 116.141 114.66C116.235 114.553 116.33 114.447 116.425 114.352C116.839 113.914 117.301 113.487 117.775 113.061C118.237 112.647 118.734 112.244 119.267 111.841C119.267 111.841 119.279 111.83 119.291 111.818C119.421 111.877 119.539 111.948 119.658 112.007C122.382 110.219 124.608 109.26 124.821 109.165C132.803 104.641 130.908 96.044 130.825 95.6769L130.849 95.7125Z" fill="white"/>
<path d="M79.0274 152.176L78.3761 151.785L76.8248 150.849L70.809 161.555C70.809 161.555 70.7735 161.59 70.7616 161.614C77.7958 184.647 77.784 192.202 77.7721 192.581C77.7721 192.901 77.4998 193.161 77.18 193.161C76.8485 193.161 76.5879 192.889 76.5998 192.557C76.5998 192.451 76.5998 181.023 63.8458 144.253C62.4958 140.369 62.1642 136.58 61.9985 132.66C61.9985 132.459 61.9748 132.257 61.9748 132.044C61.9748 131.843 61.9629 131.63 61.9511 131.428C61.9392 130.955 61.9156 130.481 61.9037 130.007C61.88 129.06 61.8445 128.101 61.7971 127.141C61.7971 127.141 61.7971 127.153 61.7971 127.165C61.7024 127.355 61.5011 127.461 61.2998 127.461C61.2169 127.461 61.1221 127.437 61.0392 127.402C61.0392 127.402 61.0274 127.39 61.0156 127.378C60.7669 127.224 60.6721 126.916 60.8024 126.656C61.0629 126.159 61.2879 125.626 61.4774 125.093C61.5485 124.903 61.584 124.714 61.6432 124.512C61.8563 123.802 62.0221 123.091 62.1169 122.357C62.2708 121.043 62.2116 119.705 61.9629 118.366C61.6906 116.922 61.1813 115.489 60.4471 114.103C60.3761 113.973 60.3287 113.855 60.2577 113.724C59.9616 113.203 59.1445 111.853 58.3511 110.598C57.9485 109.97 57.5577 109.355 57.2498 108.893C52.4774 102.024 46.8761 97.2164 42.755 94.8125C40.1971 93.3085 38.3616 93.048 37.7458 94.0782C36.9169 95.4756 38.1129 98.6256 39.8892 99.7032C40.659 100.177 42.2103 101.314 44.1287 103.031C44.9695 103.078 45.8221 103.149 46.6629 103.303C46.9708 103.351 47.1721 103.647 47.1129 103.943C47.1129 104.014 47.0774 104.073 47.0419 104.12C46.9353 104.322 46.7103 104.44 46.4734 104.393C46.1419 104.334 45.7985 104.31 45.4669 104.274C45.1708 104.239 44.8629 104.191 44.5669 104.168C44.2827 104.144 43.9866 104.144 43.7024 104.132C42.684 104.097 41.6774 104.144 40.6827 104.274C40.4221 104.31 40.1616 104.334 39.9129 104.369C39.6761 104.405 39.4629 104.476 39.2261 104.523C38.8353 104.606 38.4327 104.677 38.0537 104.784C38.0063 104.795 37.9471 104.807 37.8998 104.807C37.6629 104.807 37.4616 104.653 37.3787 104.428C37.3787 104.428 37.3669 104.416 37.3669 104.405C37.284 104.109 37.4498 103.801 37.7458 103.718C37.8761 103.682 38.0182 103.659 38.1603 103.623C38.0774 103.552 37.9945 103.493 37.9235 103.422C30.1077 96.5296 25.8445 88.4059 24.9682 86.0967C24.3287 84.4151 22.055 82.8638 20.48 82.8638C20.2432 82.8638 20.0182 82.8993 19.8287 82.9703C18.9879 83.2782 18.7392 84.3914 19.0827 86.0848C19.805 86.7243 20.3971 87.4822 20.7169 88.3111C21.5577 90.5019 25.6313 98.2703 33.1274 104.973C33.3524 105.174 33.3761 105.53 33.1748 105.755C33.1629 105.778 33.1392 105.778 33.1156 105.802C32.9024 105.98 32.6063 105.991 32.3932 105.802C28.1063 101.965 24.909 97.773 22.7656 94.4335C21.084 91.8046 20.0656 89.6967 19.6748 88.7019C19.4971 88.2519 19.2011 87.8138 18.8458 87.4111C18.609 87.1506 18.3603 86.9019 18.0761 86.6769C16.9274 85.7651 15.4708 85.2322 14.5235 85.5756C13.5406 85.9427 13.3629 87.3993 14.0142 89.6256C15.6248 90.2532 17.2116 91.6151 17.8156 93.2019C18.5735 95.1796 22.2445 102.261 29.0063 108.739C29.2313 108.952 29.2313 109.307 29.0182 109.52C29.0063 109.532 28.9945 109.544 28.9708 109.544C28.7577 109.734 28.4379 109.734 28.2248 109.532C21.3208 102.924 17.5432 95.6296 16.7735 93.5927C16.4063 92.6335 15.5182 91.7217 14.5235 91.1177C14.2748 90.9638 14.0379 90.8453 13.7892 90.7269C13.5642 90.6322 13.3392 90.5611 13.1261 90.5019C12.5695 90.348 12.0485 90.3243 11.634 90.4782C10.509 90.9046 10.4379 92.7401 11.4445 95.5348C11.5392 95.7835 11.634 96.044 11.7406 96.3046C13.8248 96.2098 16.5958 98.0217 17.4366 100.236C18.0761 101.918 21.2024 108.064 26.9458 114.091C27.159 114.316 27.1471 114.66 26.9221 114.873C26.9221 114.873 26.9103 114.873 26.8985 114.885C26.6735 115.086 26.3419 115.074 26.1287 114.849C20.2313 108.656 17.0932 102.486 16.3827 100.627C15.7787 99.0401 13.7537 97.6072 12.1906 97.4414C11.9774 97.4177 11.7761 97.4177 11.5866 97.4414C11.4682 97.4532 11.3379 97.4651 11.2313 97.5006C11.1603 97.5243 11.1129 97.5717 11.0537 97.6072C10.1063 98.1519 10.0827 99.9282 11.0419 102.557C13.1261 108.312 18.905 117.537 28.3077 124.619C28.5563 124.809 28.8169 124.986 29.0774 125.176C29.1485 125.187 29.2195 125.223 29.2906 125.27L29.5392 125.46L29.7761 125.637L30.3682 126.087L30.9129 126.502C31.2682 126.964 31.6471 127.402 32.0379 127.84C32.2866 128.112 32.5353 128.373 32.7958 128.622C33.1037 128.918 33.4234 129.214 33.7669 129.486C34.359 129.984 34.9984 130.445 35.6498 130.872C36.9879 131.736 38.4327 132.47 39.9958 133.027C40.28 133.122 40.4221 133.43 40.3392 133.714C40.3392 133.714 40.3392 133.726 40.3392 133.737C40.2563 133.962 40.0432 134.105 39.8182 134.105C39.759 134.105 39.6879 134.105 39.6287 134.069C39.4274 133.998 39.2498 133.915 39.0485 133.844C39.309 134.709 39.759 136.284 40.2919 138.415C40.3392 138.605 40.3866 138.794 40.434 138.995C40.4813 139.185 40.5287 139.386 40.5761 139.576C41.7248 144.36 43.1458 151.37 43.8563 159.352C44.0813 161.886 44.1287 164.622 44.1761 167.523C44.3537 178.453 44.5787 192.048 54.6682 207.028C54.7037 207.087 54.7392 207.147 54.7511 207.218C54.7629 207.265 56.0656 212.452 60.0208 213.755C62.934 214.714 66.5932 213.387 70.9037 209.835L73.2958 207.123L99.3248 176.523C99.7866 174.012 100.189 171.727 100.533 169.726C100.568 169.524 100.604 169.311 100.639 169.11C100.675 168.897 100.71 168.695 100.746 168.494C100.935 167.369 101.101 166.362 101.231 165.486L79.6906 152.507L79.0392 152.116L79.0274 152.176ZM51.234 117.691C51.234 117.691 51.1985 117.715 51.1866 117.739C51.08 117.857 50.9379 117.928 50.784 117.928C50.6656 117.928 50.559 117.893 50.4524 117.822C50.0853 117.561 49.7182 117.301 49.3392 117.076C49.0906 116.922 48.83 116.768 48.5695 116.626C46.959 115.702 45.3129 115.039 43.7971 114.577C43.0629 114.352 42.3524 114.162 41.7011 114.02C41.1208 113.89 40.5642 113.784 40.0787 113.701C40.0077 113.689 39.9366 113.677 39.8656 113.665C39.8063 113.665 39.759 113.653 39.6998 113.641C38.3616 113.44 37.509 113.416 37.4853 113.416C37.1774 113.416 36.9406 113.156 36.9406 112.848C36.9406 112.54 37.1774 112.291 37.509 112.303C37.5445 112.303 37.7221 112.303 37.9827 112.327C38.1485 112.327 38.3735 112.351 38.634 112.374C38.7998 112.386 38.9774 112.41 39.1787 112.434C39.5577 112.481 39.9958 112.54 40.4695 112.623C43.1932 113.085 47.3616 114.198 51.1037 116.922C51.3524 117.099 51.4116 117.455 51.2221 117.703L51.234 117.691Z" fill="white"/>
<path d="M85.6712 132.221L86.7014 132.825L87.0093 133.003L99.7751 140.416C99.8462 140.451 99.9172 140.475 100 140.475C100.154 140.475 100.296 140.392 100.379 140.25C100.497 140.037 100.426 139.765 100.213 139.646L87.5304 132.28L87.1751 132.067L86.133 131.463L85.2093 130.918C84.9962 130.8 84.7238 130.871 84.6054 131.084C84.487 131.297 84.558 131.57 84.7712 131.688L85.6712 132.209V132.221Z" fill="white"/>
<path d="M203.181 155.349C203.181 155.349 203.228 155.349 203.264 155.349L220.672 152.176L220.861 152.14C220.861 152.14 220.897 152.128 220.92 152.116C221.122 152.045 221.252 151.844 221.216 151.619C221.181 151.406 220.991 151.264 220.778 151.264C220.754 151.264 220.719 151.264 220.695 151.264L220.423 151.311L203.11 154.473C202.873 154.52 202.707 154.745 202.754 154.994C202.79 155.207 202.979 155.361 203.193 155.361L203.181 155.349Z" fill="white"/>
<path d="M192.664 107.199C192.664 107.199 192.605 107.164 192.581 107.14C192.356 106.903 192.356 106.524 192.593 106.299C197.637 101.42 198.656 94.6821 195.376 88.4532C195.257 88.2756 195.162 88.0979 195.091 87.9558C194.973 87.7427 194.854 87.5295 194.724 87.3164C194.712 87.2927 194.712 87.269 194.701 87.2453C194.677 87.2098 194.665 87.1624 194.653 87.1269C194.653 87.0914 194.653 87.0558 194.653 87.0203C194.653 86.9848 194.653 86.9492 194.653 86.9019C194.653 86.8545 194.677 86.819 194.701 86.7835C194.701 86.7598 194.712 86.7242 194.724 86.7006C196.465 83.7992 197.673 81.0282 198.478 78.4229C197.306 76.5045 195.174 73.9821 191.941 73.39C191.728 73.3545 191.491 73.3427 191.266 73.319C191.041 73.2953 190.816 73.2716 190.579 73.2716C189.739 73.2716 188.851 73.3782 187.891 73.6624C187.572 73.7571 187.252 73.5795 187.157 73.2598C187.062 72.94 187.24 72.6203 187.56 72.5256C188.957 72.1111 190.236 72.0163 191.397 72.1229C191.622 72.1466 191.847 72.1703 192.06 72.2177C192.273 72.2532 192.486 72.3006 192.687 72.3479C195.553 73.0703 197.59 75.1308 198.905 76.9782C199.497 74.7045 199.793 72.5848 199.876 70.6308C199.876 70.4295 199.887 70.24 199.899 70.0387C199.899 69.9558 199.899 69.8611 199.899 69.7782C199.899 69.4466 199.899 69.1032 199.899 68.7598C199.899 68.6058 199.899 68.4637 199.899 68.3098C199.899 68.215 199.899 68.1203 199.899 68.0256C199.816 66.19 199.556 64.5558 199.236 63.1585C199.189 62.9808 199.153 62.7913 199.106 62.6137C199.07 62.5663 199.023 62.519 198.987 62.4716C198.857 62.3058 198.739 62.1519 198.597 61.9979C190.757 52.9979 165.687 53.2703 154.769 60.4585C154.733 60.4821 154.698 60.5058 154.662 60.5295C154.532 60.6242 154.414 60.7071 154.283 60.8019C154.13 60.9085 153.964 61.0269 153.81 61.1335C149.31 64.4966 149.393 67.6585 149.499 71.6137C149.606 75.3913 149.724 79.6663 145.923 85.0308C145.923 85.0308 145.923 85.0308 145.911 85.0427C144.845 87.3637 145.449 88.3229 146.112 89.3295C146.799 90.3716 147.569 91.544 146.349 93.8177C146.243 94.019 146.041 94.1256 145.828 94.1256C145.733 94.1256 145.639 94.1019 145.544 94.0545C145.26 93.9006 145.153 93.5453 145.307 93.2492C146.195 91.5913 145.745 90.9163 145.13 89.969C144.419 88.8913 143.578 87.5532 144.715 84.8532C142.595 83.1598 140.665 82.4729 138.972 82.8282C136.793 83.29 135.739 85.3387 135.62 85.5637C134.14 88.619 133.868 91.5203 134.839 94.1848C136.651 99.194 142.264 101.776 142.311 101.799C142.335 101.799 142.335 101.823 142.358 101.835C142.382 101.847 142.406 101.847 142.43 101.87C142.465 101.894 142.489 101.941 142.512 101.977C142.536 102.001 142.56 102.024 142.583 102.06C142.631 102.131 142.643 102.214 142.655 102.308C142.655 102.32 142.666 102.344 142.666 102.356V102.474C142.666 103.576 142.986 114.707 156.699 121.694C156.995 121.848 157.102 122.203 156.96 122.487C156.853 122.689 156.652 122.807 156.427 122.807C156.332 122.807 156.249 122.783 156.155 122.748C148.291 118.745 144.715 113.416 143.105 109.662C143.045 109.52 142.998 109.402 142.939 109.26C142.998 110.314 143.057 111.498 143.105 112.753C143.187 114.482 143.223 116.14 143.199 117.715C143.199 120.332 143.105 122.914 142.82 124.998C142.453 128.894 141.932 131.701 141.683 132.873C141.624 133.157 141.376 133.347 141.103 133.347C141.068 133.347 141.02 133.347 140.985 133.335C140.665 133.264 140.464 132.956 140.523 132.636C140.653 132.044 140.855 131.002 141.056 129.628C139.943 130.682 138.036 131.76 135.727 132.802C146.752 152.614 157.824 151.974 167.665 146.255C167.866 146.136 168.056 146.03 168.245 145.911C168.245 145.911 168.257 145.911 168.269 145.899C168.447 145.793 168.624 145.686 168.79 145.58C168.826 145.556 168.861 145.532 168.885 145.52C169.039 145.426 169.181 145.331 169.335 145.236C170.294 144.62 171.241 143.957 172.177 143.27L172.615 141.435L170.933 139.895L170.495 139.493L170.057 139.09L169.666 138.735C169.512 138.593 169.441 138.38 169.489 138.178L171.206 130.007C169.761 129.605 168.316 129.107 166.966 128.586C166.753 128.503 166.54 128.42 166.339 128.337C166.126 128.255 165.912 128.172 165.699 128.089C165.072 127.84 164.456 127.591 163.876 127.355L163.485 127.189C163.177 127.07 163.035 126.715 163.165 126.419C163.283 126.111 163.639 125.969 163.935 126.099L164.326 126.265C164.704 126.419 165.095 126.585 165.498 126.751C165.711 126.833 165.912 126.916 166.137 127.011C166.351 127.094 166.564 127.177 166.777 127.26C169.951 128.503 173.645 129.747 176.736 129.687C176.997 129.687 177.245 129.664 177.494 129.64C177.766 129.616 178.039 129.569 178.311 129.522C178.998 129.391 179.637 129.166 180.218 128.835C181.876 127.864 182.858 126.087 183.19 123.387C183.19 123.376 183.202 123.364 183.202 123.352C183.226 123.257 183.261 123.162 183.332 123.091C183.332 123.091 183.332 123.068 183.356 123.056C183.38 123.032 183.806 122.582 184.457 121.848C184.587 121.706 184.706 121.564 184.848 121.398C184.966 121.256 185.108 121.102 185.227 120.948C187.394 118.39 190.864 113.878 192.51 109.508C192.747 108.881 192.96 108.253 193.114 107.637C193.137 107.531 193.149 107.424 193.173 107.318C193.126 107.33 193.078 107.341 193.019 107.341C192.901 107.341 192.782 107.294 192.676 107.211L192.664 107.199ZM142.358 87.8611C142.193 88.1453 141.826 88.2282 141.541 88.0624C140.452 87.4111 139.777 88.0032 139.398 88.619C138.522 90.0519 138.569 92.9532 140.653 94.2321C140.926 94.4098 141.02 94.765 140.843 95.0492C140.736 95.2269 140.535 95.3334 140.333 95.3334C140.227 95.3334 140.12 95.3098 140.026 95.2387C137.302 93.5453 137.243 89.8861 138.391 88.0032C139.268 86.5703 140.736 86.2032 142.157 87.0558C142.441 87.2216 142.524 87.5887 142.358 87.8729V87.8611ZM180.845 86.9729C180.964 85.5519 181.449 83.9177 182.503 81.9992C182.657 81.715 183.024 81.6085 183.308 81.7624C183.593 81.9163 183.699 82.2835 183.545 82.5677C183.202 83.2071 182.918 83.8111 182.693 84.3795C182.444 85.0071 182.278 85.5874 182.172 86.1321C182.089 86.5585 182.03 86.9729 182.018 87.3637C181.958 89.6256 183.072 91.3308 184.741 92.9769C185.831 94.0427 186.316 95.215 186.186 96.4585C185.914 99.0874 182.93 101.018 182.799 101.101C182.705 101.16 182.586 101.195 182.48 101.195C182.278 101.195 182.089 101.101 181.982 100.923C181.805 100.651 181.887 100.283 182.16 100.106C182.183 100.094 184.789 98.4006 185.002 96.34C185.097 95.4637 184.741 94.6466 183.912 93.8295C182.515 92.4677 181.307 90.9163 180.94 88.8913C180.893 88.6071 180.857 88.3111 180.833 88.015C180.81 87.6835 180.81 87.34 180.833 86.9848L180.845 86.9729ZM158.641 72.5374C158.57 72.6085 158.487 72.6558 158.393 72.6795C158.333 72.6913 158.274 72.715 158.215 72.715C158.061 72.715 157.919 72.6558 157.801 72.5492C157.789 72.5374 157.777 72.5137 157.765 72.49C157.623 72.3124 157.587 72.0874 157.682 71.8861C157.706 71.8269 157.741 71.7677 157.801 71.7085C157.801 71.7085 157.955 71.5545 158.203 71.3413C158.345 71.2229 158.523 71.0808 158.736 70.9269C160.903 69.3282 166.753 66.1427 175.244 69.9203C175.54 70.0506 175.682 70.4058 175.54 70.7019C175.41 70.9979 175.054 71.14 174.758 70.9979C165.794 67.0071 160.216 71.1282 158.926 72.265C158.772 72.4071 158.665 72.5019 158.641 72.5374V72.5374ZM166.374 83.3729C166.149 84.4269 165.178 85.1137 164.207 84.9124C163.236 84.7111 162.62 83.6927 162.845 82.6387C163.07 81.5848 164.041 80.8979 165.012 81.0992C165.983 81.3006 166.599 82.319 166.374 83.3729ZM187.098 107.483C184.658 111.782 182.314 115.169 179.732 117.028C179.566 117.147 179.389 117.277 179.211 117.383C179.022 117.502 178.832 117.608 178.643 117.703C177.553 118.295 176.404 118.627 175.185 118.627C174.699 118.627 174.202 118.58 173.693 118.473C169.086 117.537 166.208 113.132 163.994 107.851C163.674 107.081 163.355 106.287 163.058 105.482C162.845 104.902 162.632 104.322 162.419 103.73C162.348 103.54 162.407 103.351 162.526 103.197C162.407 103.291 162.289 103.398 162.182 103.493C161.555 104.097 161.128 104.819 161.128 105.66C161.128 105.991 160.868 106.252 160.536 106.252C160.193 106.252 159.944 105.991 159.944 105.66C159.944 104.18 160.82 102.995 161.993 102.119C162.17 101.989 162.348 101.858 162.537 101.752C162.715 101.633 162.905 101.527 163.094 101.432C163.982 100.958 164.93 100.627 165.735 100.449C166.055 100.378 166.374 100.591 166.433 100.911C166.504 101.231 166.291 101.551 165.972 101.61C165.166 101.776 164.16 102.143 163.272 102.687C163.106 102.794 162.94 102.901 162.786 103.007C162.94 102.948 163.094 102.936 163.248 103.007C163.272 103.007 163.295 103.031 163.319 103.043C165.877 104.262 168.518 105.257 171.099 106.015C171.301 106.074 171.502 106.133 171.691 106.193C171.893 106.252 172.106 106.299 172.307 106.347C178.133 107.886 183.462 108.099 186.328 106.666C186.565 106.548 186.849 106.595 187.027 106.785C187.204 106.974 187.24 107.258 187.11 107.483H187.098ZM189.905 86.7361C189.68 87.79 188.708 88.4769 187.737 88.2756C186.766 88.0742 186.151 87.0558 186.376 86.0019C186.601 84.9479 187.572 84.2611 188.543 84.4624C189.514 84.6637 190.13 85.6821 189.905 86.7361Z" fill="white"/>
<path d="M166.316 39.1195C179.33 39.1313 190.379 46.1655 194.583 53.1169C194.666 53.259 194.808 53.33 194.962 53.33C195.045 53.33 195.116 53.3063 195.187 53.2708C195.4 53.1405 195.459 52.8682 195.341 52.6668C191.018 45.5142 179.662 38.2668 166.316 38.2432C166.067 38.2432 165.878 38.4445 165.866 38.6813C165.866 38.93 166.067 39.1313 166.304 39.1313L166.316 39.1195Z" fill="white"/>
<path d="M138.924 26.4124C147.19 22.9782 151.844 27.7742 153.467 29.9887C153.549 30.1071 153.692 30.1663 153.822 30.1663C153.917 30.1663 153.999 30.1426 154.082 30.0834C154.284 29.9413 154.319 29.6571 154.177 29.4676C152.436 27.0755 147.427 21.9124 138.581 25.5953C138.356 25.69 138.249 25.9505 138.344 26.1755C138.439 26.4005 138.699 26.5071 138.924 26.4124V26.4124Z" fill="white"/>
<path d="M172.698 108.538C172.485 108.479 172.272 108.432 172.059 108.373C171.857 108.313 171.632 108.254 171.419 108.183C169.69 107.686 167.795 107.058 165.688 106.217C165.77 107.994 168.92 110.054 172.532 111.357C172.805 111.452 173.077 111.558 173.361 111.653C173.634 111.736 173.906 111.819 174.19 111.902C176.949 112.695 179.756 112.979 181.497 112.316L183.936 109.356C183.936 109.356 180.289 110.469 172.71 108.538H172.698Z" fill="white"/>
<path d="M134.532 48.7478C134.674 48.7478 134.804 48.6767 134.899 48.5583C139.967 41.3702 146.67 37.2491 155.966 35.5912C156.203 35.5438 156.369 35.3188 156.321 35.0702C156.274 34.8333 156.049 34.6675 155.8 34.7149C146.255 36.4202 139.375 40.6596 134.165 48.0491C134.023 48.2504 134.07 48.5228 134.271 48.6649C134.354 48.7241 134.437 48.7478 134.532 48.7478V48.7478Z" fill="white"/>
<path d="M205.158 73.8882C205.099 74.1251 205.253 74.3619 205.489 74.4211C205.525 74.4211 205.56 74.433 205.596 74.433C205.797 74.433 205.975 74.3027 206.022 74.0895C206.07 73.8764 207.206 68.9264 204.104 63.6803C204.045 63.5856 203.997 63.4909 203.938 63.3961C203.903 63.3369 203.855 63.3014 203.808 63.2659C203.666 63.1711 203.488 63.1593 203.334 63.2659C203.121 63.3961 203.062 63.6685 203.192 63.8817C206.306 68.9027 205.181 73.8527 205.17 73.9001L205.158 73.8882Z" fill="white"/>
<path d="M283.328 153.667C290.765 149.925 295.762 145.188 296.934 143.826C298.474 142.026 301.683 141.256 303.637 142.026C303.815 141.825 303.992 141.611 304.158 141.422C306.029 139.148 306.598 137.407 305.686 136.65C305.354 136.365 304.869 136.223 304.312 136.176C304.075 136.152 303.826 136.152 303.566 136.176C303.27 136.2 302.974 136.247 302.666 136.318C301.576 136.567 300.487 137.111 299.848 137.857C298.426 139.515 292.423 145.117 283.695 149.025C283.411 149.155 283.091 149.025 282.949 148.776C282.949 148.764 282.925 148.752 282.913 148.729C282.783 148.432 282.913 148.077 283.209 147.947C291.736 144.122 297.574 138.686 298.948 137.088C300.049 135.797 302.003 135.039 303.744 134.992C305.082 133.132 305.413 131.723 304.62 131.06C303.862 130.421 302.334 130.444 300.961 130.906C300.582 131.036 300.226 131.202 299.895 131.392C299.457 131.64 299.066 131.925 298.77 132.268C297.882 133.298 295.395 135.702 291.676 138.284C288.799 140.285 285.199 142.417 281.042 144.11C280.758 144.229 280.462 144.11 280.32 143.85C280.308 143.826 280.284 143.814 280.273 143.779C280.154 143.471 280.296 143.127 280.592 143.009C289.9 139.207 296.342 133.275 297.87 131.486C298.45 130.811 299.267 130.302 300.155 129.935C301.032 128.479 301.174 127.377 300.499 126.809C299.267 125.779 295.987 126.453 294.649 128.017C293.05 129.888 286.288 136.117 276.613 139.989C276.542 140.025 276.459 140.048 276.388 140.072C276.483 140.143 276.59 140.19 276.684 140.261C276.945 140.451 277.016 140.818 276.826 141.09C276.826 141.09 276.815 141.09 276.803 141.114C276.684 141.256 276.519 141.339 276.341 141.339C276.223 141.339 276.104 141.304 275.998 141.232C275.678 141.007 275.334 140.806 275.003 140.605C274.79 140.475 274.588 140.332 274.375 140.202C274.138 140.072 273.878 139.953 273.629 139.823C272.765 139.397 271.876 139.018 270.941 138.722C270.645 138.627 270.361 138.532 270.053 138.45C269.745 138.367 269.425 138.307 269.117 138.236C268.821 138.177 268.537 138.082 268.229 138.035C267.98 137.988 267.791 137.798 267.755 137.561C267.744 137.49 267.732 137.431 267.755 137.36C267.815 137.04 268.123 136.827 268.442 136.875C269.283 137.017 270.112 137.23 270.917 137.467C273.298 136.496 275.145 135.951 276.021 135.761C278.034 135.347 280.213 132.801 279.894 131.226C279.669 130.065 277.869 129.71 274.979 130.267C273.759 130.492 272.386 130.859 270.905 131.332C270.609 131.427 270.325 131.522 270.017 131.629C269.709 131.735 269.39 131.854 269.07 131.972C265.269 133.393 260.923 135.584 256.6 138.663C256.162 138.982 255.617 139.409 255.061 139.847C253.876 140.771 252.633 141.789 252.171 142.192C252.053 142.286 251.958 142.405 251.84 142.5C250.703 143.542 249.755 144.69 249.021 145.934C248.323 147.118 247.813 148.373 247.517 149.676C247.363 150.363 247.28 151.05 247.245 151.76C247.233 151.985 247.209 152.222 247.209 152.447C247.209 153.015 247.245 153.584 247.328 154.14C247.375 154.448 247.162 154.732 246.854 154.792C246.842 154.792 246.83 154.792 246.819 154.804C246.795 154.804 246.759 154.804 246.736 154.804C246.451 154.804 246.215 154.602 246.155 154.318C245.8 155.194 245.457 156.059 245.125 156.923C243.349 161.471 241.655 165.769 238.505 169.689C232.584 177.055 227.895 183.26 224.153 188.435C223.999 188.648 223.833 188.873 223.679 189.086C223.525 189.3 223.383 189.501 223.241 189.702C212.358 204.967 210.286 210.805 210.262 210.888C210.179 211.136 209.942 211.29 209.705 211.29C209.646 211.29 209.575 211.29 209.516 211.255C209.208 211.148 209.042 210.817 209.149 210.509C209.255 210.189 211.257 204.528 221.761 189.738C221.891 189.548 222.033 189.359 222.175 189.157C222.317 188.956 222.459 188.767 222.601 188.553C223.703 187.026 224.887 185.403 226.154 183.686C226.154 183.663 226.13 183.639 226.13 183.615L224.295 172.922L203.109 177.765L202.34 177.943L201.57 178.121L200.22 178.428L200.267 178.511L200.173 178.76C200.149 178.831 198.87 182.396 197.638 188.056C197.236 189.904 196.845 191.964 196.501 194.214L208.616 226.176L209.812 229.172C211.612 232.168 213.483 234.264 215.39 235.413C216.491 236.076 217.604 236.431 218.729 236.467C222.874 236.573 225.846 232.132 225.882 232.085C225.917 232.026 225.965 231.979 226.024 231.931C240.566 221.226 245.338 208.484 249.175 198.252C250.194 195.54 251.153 192.971 252.219 190.661C257.299 179.613 263.22 171.027 265.198 168.292C265.032 168.292 264.866 168.304 264.7 168.304C264.369 168.304 264.108 168.043 264.108 167.711C264.108 167.711 264.108 167.7 264.108 167.688C264.12 167.368 264.38 167.119 264.7 167.119C266.026 167.119 267.329 166.989 268.584 166.752C269.508 166.575 270.396 166.338 271.273 166.042C271.959 165.805 272.623 165.544 273.262 165.236C273.44 165.153 273.617 165.059 273.795 164.964C274.351 164.68 274.896 164.372 275.429 164.029L275.583 163.957L275.808 163.886L276.755 163.602L277.194 163.472L277.383 163.413C277.466 163.389 277.537 163.377 277.62 163.389C277.916 163.306 278.224 163.223 278.52 163.129C289.746 159.623 298.284 152.873 302.18 148.16C303.933 146.04 304.513 144.406 303.862 143.565C303.815 143.506 303.779 143.435 303.708 143.388C303.613 143.317 303.495 143.269 303.388 143.21C303.211 143.115 303.009 143.044 302.784 142.997C301.269 142.665 298.948 143.34 297.87 144.596C296.579 146.111 291.546 150.872 283.908 154.721C283.624 154.863 283.28 154.756 283.126 154.472C283.126 154.472 283.126 154.472 283.115 154.448C282.973 154.152 283.079 153.797 283.375 153.655L283.328 153.667ZM274.363 149.107C274.28 149.356 274.044 149.51 273.807 149.51C273.748 149.51 273.676 149.51 273.617 149.475C273.594 149.475 272.765 149.202 271.415 148.942C271.32 148.918 271.225 148.906 271.119 148.882C271.119 148.882 271.095 148.882 271.083 148.882C270.562 148.788 269.982 148.693 269.342 148.622C268.561 148.527 267.696 148.468 266.773 148.444C265.375 148.409 263.859 148.492 262.296 148.752C262.083 148.788 261.87 148.835 261.645 148.871C261.088 148.989 260.52 149.107 259.951 149.273C259.644 149.368 259.324 149.19 259.217 148.882C259.123 148.575 259.3 148.243 259.62 148.148C264.061 146.846 268.371 147.189 271.095 147.675C271.616 147.769 272.066 147.864 272.457 147.947C272.634 147.994 272.8 148.03 272.954 148.065C273.262 148.148 273.511 148.207 273.688 148.267C273.854 148.314 273.973 148.35 274.008 148.361C274.316 148.468 274.482 148.8 274.387 149.107H274.363Z" fill="white"/>
<path d="M146.729 183.392L146.445 187.099L146.398 187.691L146.35 188.283L146.315 188.804C146.386 188.923 147.238 189.408 148.766 189.408C149.784 189.408 150.495 189.195 150.886 188.994C151.075 188.899 151.194 188.792 151.217 188.733L151.241 188.473L151.288 187.869L151.632 183.475C150.957 183.736 150.116 183.878 149.299 183.878C148.387 183.878 147.44 183.712 146.741 183.392H146.729Z" fill="white"/>
<path d="M149.286 181.378C147.794 181.378 146.953 181.84 146.847 182.029C146.847 182.029 146.847 182.041 146.835 182.053C146.906 182.207 147.759 182.692 149.286 182.692C150.814 182.692 151.619 182.23 151.738 182.041C151.631 181.84 150.778 181.39 149.286 181.39V181.378Z" fill="white"/>
<path d="M169.999 161.921C169.964 161.684 169.928 161.448 169.893 161.211C169.727 160.216 169.49 159.257 169.17 158.38C168.602 159.896 167.737 161.519 166.908 163.105C166.754 163.402 166.6 163.698 166.435 164.005C166.233 164.384 166.044 164.763 165.854 165.142C165.689 165.474 165.535 165.794 165.381 166.102C164.35 168.257 163.664 170.211 164.149 171.359C164.35 171.845 164.789 172.188 165.475 172.39C165.783 172.484 166.068 172.508 166.352 172.508C167.05 172.508 167.654 172.236 168.187 171.667C169.691 170.057 170.366 166.279 170.058 162.644C170.035 162.407 170.011 162.158 169.987 161.921H169.999Z" fill="white"/>
<path d="M132.317 183.296C131.488 183.023 130.754 182.633 130.221 182.183L129.167 186.458L129.025 187.05L128.966 187.275C128.966 187.346 129.048 187.488 129.202 187.642C129.51 187.962 130.114 188.388 131.085 188.708C132.542 189.193 133.501 188.992 133.631 188.838L133.738 188.388L133.88 187.808L134.022 187.227L134.91 183.616C134.756 183.639 134.602 183.651 134.437 183.651C133.773 183.651 133.027 183.509 132.329 183.284L132.317 183.296Z" fill="white"/>
<path d="M133.099 180.928C131.69 180.466 130.742 180.632 130.576 180.786C130.624 181.011 131.287 181.71 132.696 182.171C134.105 182.633 135.053 182.468 135.219 182.314C135.219 182.314 135.23 182.314 135.242 182.302C135.23 182.136 134.567 181.414 133.111 180.928H133.099Z" fill="white"/>
<path d="M172.616 141.436L172.178 143.272C172.628 142.94 173.066 142.608 173.516 142.265L172.616 141.436Z" fill="#F3F5F7"/>
<path d="M266.323 113.914L260.201 109.568L259.715 109.224L259.23 108.881L225.432 84.9008C223.206 83.3258 220.66 82.5679 218.126 82.5679C214.17 82.5679 210.262 84.4271 207.799 87.8968L202.624 95.1916C201.902 103.517 204.341 110.184 204.377 110.267C204.46 110.48 204.412 110.717 204.259 110.882C204.14 111.001 203.986 111.072 203.832 111.072C203.773 111.072 203.714 111.072 203.655 111.048C203.595 111.024 198.491 109.319 197.793 102.013L194.465 106.69C193.968 109.982 192.049 113.571 189.989 116.602C189.989 116.602 189.989 116.602 189.989 116.626C190.143 117.265 190.309 117.928 190.486 118.615C190.83 120.001 191.197 121.457 191.516 122.949C191.516 123.021 191.516 123.103 191.516 123.174C191.73 124.074 191.895 124.939 192.038 125.768C192.085 126.04 192.109 126.301 192.144 126.573C192.18 126.846 192.227 127.118 192.251 127.378C192.298 127.781 192.345 128.184 192.369 128.563C192.369 128.586 192.369 128.622 192.369 128.646C192.405 129.036 192.428 129.427 192.44 129.806C192.44 130.031 192.452 130.268 192.464 130.481C192.464 130.955 192.464 131.428 192.464 131.878C192.286 137.065 190.593 140.582 188.864 143.01C188.686 143.259 188.52 143.484 188.343 143.697C188.035 144.099 187.727 144.467 187.431 144.81C185.915 146.373 184.731 147.723 183.807 148.919C183.772 148.955 183.748 149.002 183.713 149.038C183.298 149.582 182.931 150.103 182.611 150.601C181.226 152.732 180.622 154.449 180.077 156.321C179.58 158.002 179.876 159.909 180.456 161.685C180.563 162.017 180.681 162.336 180.811 162.656C180.953 163.011 181.095 163.355 181.249 163.698C182.327 166.031 183.606 167.784 183.63 167.819L184.423 168.885L183.097 168.767C174.997 168.021 172.166 163.461 171.302 161.448C171.243 161.507 171.172 161.555 171.113 161.614C171.622 165.652 171.03 170.294 169.04 172.426C168.638 172.852 168.199 173.16 167.726 173.361C168.436 174.759 168.199 178.489 161.556 200.314C167.915 199.888 174.002 198.703 179.189 196.43C179.485 196.299 179.84 196.43 179.97 196.738C180.101 197.034 179.97 197.389 179.663 197.519C172.711 200.551 164.362 201.759 155.907 201.759C151.431 201.759 146.919 201.415 142.561 200.835C142.348 200.811 142.123 200.776 141.91 200.74C141.697 200.705 141.472 200.681 141.259 200.646C125.828 198.384 112.648 193.114 110.291 189.005C110.126 188.721 110.232 188.365 110.505 188.199C110.789 188.034 111.156 188.14 111.31 188.413C112.482 190.461 116.674 192.818 122.595 194.902L123.412 190.082C123.412 190.082 123.424 190.035 123.436 190.023C123.365 189.715 123.353 189.396 123.412 189.064C123.72 187.406 125.615 186.613 127.912 186.435L129.369 180.49V180.467V180.396H129.393C129.393 180.384 129.393 180.372 129.393 180.36C129.499 180.04 129.855 179.484 131.039 179.401C131.737 179.353 132.578 179.484 133.419 179.756C133.857 179.898 134.272 180.076 134.639 180.277C134.935 180.443 135.195 180.609 135.432 180.798C135.468 180.834 135.515 180.857 135.551 180.881C136.415 181.615 136.403 182.243 136.309 182.586L136.178 183.107L135.906 184.197L135.077 187.584C136.012 187.974 136.853 188.46 137.469 189.028C138.31 189.798 138.795 190.734 138.701 191.823C138.701 191.847 138.701 191.859 138.701 191.882C138.665 192.048 138.606 192.202 138.559 192.356C138.535 192.427 138.511 192.498 138.488 192.569C137.99 194.132 137.445 197.484 137.256 198.715C138.298 198.905 139.34 199.082 140.406 199.248C140.406 198.999 140.406 198.573 140.406 198.052C140.406 197.507 140.406 196.844 140.406 196.146C140.406 195.53 140.406 194.878 140.406 194.239C140.406 192.853 140.406 191.539 140.406 190.805C140.406 190.793 140.406 190.769 140.406 190.757C140.37 190.521 140.37 190.272 140.406 190.023C140.406 189.999 140.406 189.988 140.406 189.964C140.832 188.128 142.786 187.252 145.178 187.074L145.581 181.935C145.581 181.935 145.593 181.888 145.605 181.852C145.735 180.68 147.523 180.135 149.216 180.135C150.91 180.135 152.615 180.656 152.816 181.769C152.816 181.805 152.828 181.828 152.84 181.864C152.84 181.899 152.864 181.935 152.864 181.971C152.864 181.971 152.864 181.982 152.864 181.994C152.864 181.994 152.864 182.006 152.864 182.018L152.378 188.223C154.486 189.099 156.026 190.438 155.824 192.096C155.824 192.096 155.824 192.096 155.824 192.107L155.066 200.421C155.066 200.421 155.055 200.456 155.055 200.48C155.54 200.48 156.026 200.492 156.499 200.48C157.198 196.536 157.79 193.102 158.299 190.118C160.336 178.228 161.094 173.776 163.107 172.509C163.202 172.449 163.297 172.414 163.391 172.367C163.237 172.177 163.107 171.964 163.001 171.727C162.48 170.484 162.847 168.826 163.593 166.967C156.547 170.614 148.849 170.874 141.199 167.535C139.352 166.73 137.611 165.747 135.965 164.646C135.716 164.48 135.456 164.326 135.219 164.148C134.982 163.982 134.769 163.817 134.544 163.651C132.401 162.076 130.482 160.311 128.812 158.44C128.469 158.049 128.137 157.647 127.806 157.256C127.439 156.806 127.084 156.356 126.74 155.894C124.384 152.709 122.773 149.417 122.11 146.468C121.932 145.698 121.837 144.964 121.79 144.253C121.79 144.218 121.79 144.182 121.79 144.147C121.79 143.993 121.755 143.839 121.755 143.685C118.368 143.377 115.407 141.281 114.116 140.239C114.069 140.357 114.022 140.488 113.974 140.606C114.235 140.914 114.495 141.234 114.791 141.506C115.028 141.731 115.04 142.11 114.815 142.347C114.697 142.477 114.543 142.536 114.377 142.536C114.235 142.536 114.081 142.489 113.974 142.382C113.797 142.217 113.655 142.027 113.489 141.849C110.434 149.286 103.684 160.501 102.902 161.815C102.831 162.348 102.499 164.622 101.931 168.044C101.919 168.139 101.895 168.234 101.884 168.317C101.848 168.518 101.812 168.719 101.777 168.932C101.741 169.134 101.706 169.335 101.67 169.548C101.41 171.099 101.114 172.828 100.77 174.711C100.676 175.209 100.593 175.706 100.498 176.215C100.451 176.488 100.403 176.76 100.344 177.044C98.7809 185.381 96.5309 195.98 93.6651 205.868C90.3612 217.224 85.2454 228.214 81.3257 235.793C81.1954 236.042 81.0651 236.29 80.9349 236.539C80.8046 236.799 80.6743 237.048 80.5441 237.285C78.2822 241.572 76.5178 244.544 75.9375 245.503C90.3612 265.315 117.255 276.719 147.985 276.021C176.063 275.381 200.481 264.403 211.885 247.327C210.156 245.693 208.581 244.118 207.124 242.578C198.432 233.377 194.406 225.111 194.122 209.669C194.015 204.103 194.501 198.846 195.187 194.263C195.247 193.907 195.294 193.54 195.353 193.197C195.424 192.771 195.495 192.356 195.566 191.93C195.957 189.727 196.372 187.726 196.786 185.961C197.544 182.74 198.266 180.372 198.657 179.176C198.74 178.903 198.823 178.678 198.87 178.524C198.61 178.027 197.959 176.772 197.106 174.936C196.94 174.593 196.786 174.238 196.609 173.859C196.455 173.515 196.289 173.16 196.135 172.793C193.399 166.647 189.491 156.486 187.999 145.864C188.165 145.674 188.343 145.485 188.52 145.272C188.686 145.07 188.864 144.869 189.03 144.656C191.232 141.885 193.838 137.314 193.613 129.936C193.613 129.747 193.589 129.534 193.577 129.344C193.553 128.977 193.541 128.61 193.506 128.219C193.506 128.184 193.506 128.16 193.506 128.136C193.518 128.136 193.541 128.136 193.553 128.136C193.731 128.065 193.92 127.994 194.098 127.935C194.335 127.852 194.572 127.781 194.809 127.71C209.505 123.068 219.345 134.33 221.169 144.869C221.24 145.284 221.311 145.663 221.37 146.006C221.418 146.243 221.465 146.468 221.501 146.681C221.548 146.918 221.595 147.143 221.643 147.356C221.951 148.789 222.223 149.855 222.578 151.821C222.578 151.832 222.614 151.844 222.685 151.844C224.307 151.903 225.705 153.005 225.977 154.615L228.334 168.66C228.63 170.424 227.493 172.118 225.752 172.521L225.373 172.603L227.043 182.338C230.027 178.359 233.485 173.894 237.511 168.873C240.543 165.096 242.201 160.88 243.953 156.415C244.605 154.757 245.268 153.076 246.014 151.382C246.286 147.557 248.122 143.981 251.307 141.234C251.307 141.234 251.307 141.21 251.331 141.21C252.776 139.943 254.244 138.782 255.724 137.717C255.784 137.669 255.855 137.61 255.914 137.574C260.864 134.057 265.849 131.677 270.041 130.268C273.097 124.714 271.581 117.621 266.276 113.867L266.323 113.914Z" fill="#F3F5F7"/>
<path d="M43.8096 114.565C45.3254 115.039 46.9714 115.702 48.582 116.614C48.8425 116.756 49.0912 116.898 49.3517 117.064C49.7306 117.301 50.0977 117.549 50.4648 117.81C50.5596 117.881 50.678 117.916 50.7964 117.916C50.9504 117.916 51.0925 117.845 51.1991 117.727C51.2109 117.715 51.2346 117.703 51.2464 117.68C51.4241 117.431 51.3767 117.087 51.128 116.898C47.3859 114.174 43.2175 113.061 40.4938 112.599C40.0083 112.516 39.5819 112.457 39.203 112.41C39.0017 112.386 38.8241 112.362 38.6583 112.351C38.4096 112.327 38.1846 112.303 38.007 112.303C37.7464 112.291 37.5806 112.28 37.5333 112.28C37.2017 112.28 36.9767 112.516 36.9648 112.824C36.9648 113.132 37.2017 113.381 37.5096 113.393C37.5333 113.393 38.3859 113.416 39.7241 113.618C39.7833 113.618 39.8306 113.63 39.8898 113.641C39.9609 113.641 40.0201 113.665 40.103 113.677C40.5885 113.76 41.1451 113.866 41.7254 113.997C42.3767 114.139 43.0872 114.328 43.8214 114.553L43.8096 114.565Z" fill="#21242A"/>
<path d="M174.771 71.0229C175.067 71.1531 175.422 71.0229 175.552 70.7268C175.683 70.4308 175.552 70.0755 175.256 69.9453C166.765 66.1558 160.915 69.3532 158.748 70.9518C158.535 71.1058 158.346 71.2479 158.215 71.3663C157.967 71.5795 157.813 71.7216 157.813 71.7334C157.765 71.7808 157.73 71.8518 157.694 71.911C157.612 72.1124 157.635 72.3374 157.777 72.515C157.789 72.5387 157.801 72.5505 157.813 72.5742C157.931 72.6926 158.073 72.74 158.227 72.74C158.287 72.74 158.346 72.7282 158.405 72.7045C158.5 72.6808 158.583 72.6334 158.654 72.5624C158.677 72.5387 158.784 72.4321 158.938 72.29C160.229 71.165 165.818 67.0321 174.771 71.0229V71.0229Z" fill="#21242A"/>
<path d="M183.913 93.8289C184.742 94.6342 185.097 95.4631 185.002 96.3394C184.789 98.4 182.184 100.093 182.16 100.105C181.888 100.283 181.805 100.65 181.982 100.922C182.101 101.1 182.29 101.195 182.48 101.195C182.586 101.195 182.693 101.159 182.8 101.1C182.93 101.017 185.914 99.0987 186.186 96.4579C186.317 95.2145 185.831 94.0421 184.742 92.9763C183.06 91.3302 181.947 89.625 182.018 87.3631C182.018 86.9723 182.077 86.5579 182.172 86.1316C182.279 85.575 182.444 84.9947 182.693 84.3789C182.918 83.8105 183.202 83.2066 183.546 82.5671C183.7 82.2829 183.593 81.9158 183.309 81.7618C183.025 81.6079 182.657 81.7144 182.504 81.9987C181.461 83.9171 180.964 85.5513 180.846 86.9723C180.822 87.3276 180.822 87.671 180.846 88.0026C180.857 88.3105 180.893 88.5947 180.952 88.8789C181.319 90.9039 182.527 92.4434 183.925 93.8171L183.913 93.8289Z" fill="#21242A"/>
<path d="M188.544 84.4625C187.573 84.2612 186.602 84.948 186.377 86.002C186.152 87.0559 186.767 88.0744 187.739 88.2757C188.71 88.477 189.681 87.7901 189.906 86.7362C190.131 85.6822 189.515 84.6638 188.544 84.4625Z" fill="#21242A"/>
<path d="M162.858 82.6391C162.633 83.693 163.249 84.7114 164.22 84.9128C165.191 85.1141 166.162 84.4272 166.387 83.3733C166.612 82.3193 165.996 81.3009 165.025 81.0996C164.054 80.8983 163.083 81.5851 162.858 82.6391Z" fill="#21242A"/>
<path d="M142.158 87.0571C140.748 86.2045 139.268 86.5834 138.392 88.0045C137.243 89.8874 137.302 93.5584 140.026 95.24C140.121 95.2992 140.227 95.3347 140.334 95.3347C140.535 95.3347 140.725 95.24 140.843 95.0505C141.021 94.7782 140.926 94.411 140.654 94.2334C138.581 92.9426 138.534 90.0413 139.398 88.6203C139.777 88.0045 140.452 87.4124 141.542 88.0637C141.826 88.2295 142.181 88.1466 142.359 87.8624C142.525 87.5782 142.442 87.2229 142.158 87.0453V87.0571Z" fill="#21242A"/>
<path d="M186.329 106.667C183.463 108.1 178.146 107.887 172.308 106.347C172.106 106.288 171.905 106.241 171.692 106.193C171.491 106.134 171.289 106.075 171.1 106.016C168.53 105.27 165.877 104.275 163.32 103.043C163.296 103.043 163.272 103.02 163.249 103.008C163.095 102.937 162.941 102.961 162.787 103.008C162.941 102.889 163.106 102.783 163.272 102.688C164.16 102.143 165.167 101.788 165.972 101.611C166.292 101.539 166.493 101.232 166.434 100.912C166.363 100.592 166.055 100.391 165.735 100.45C164.93 100.616 163.983 100.947 163.095 101.433C162.905 101.528 162.727 101.646 162.538 101.753C162.349 101.871 162.171 101.989 161.993 102.12C160.833 102.996 159.956 104.18 159.945 105.661C159.945 105.992 160.193 106.253 160.537 106.253C160.868 106.253 161.129 105.992 161.129 105.661C161.129 104.82 161.555 104.097 162.183 103.493C162.289 103.387 162.408 103.292 162.526 103.197C162.408 103.351 162.36 103.541 162.42 103.73C162.633 104.322 162.846 104.903 163.059 105.483C163.355 106.288 163.675 107.07 163.995 107.851C166.221 113.133 169.099 117.538 173.693 118.474C174.202 118.58 174.7 118.628 175.185 118.628C176.405 118.628 177.542 118.296 178.643 117.704C178.833 117.597 179.022 117.503 179.212 117.384C179.389 117.278 179.555 117.147 179.733 117.029C182.314 115.158 184.647 111.783 187.099 107.484C187.229 107.259 187.193 106.975 187.016 106.786C186.838 106.596 186.554 106.549 186.317 106.667H186.329ZM174.179 111.901C173.906 111.818 173.634 111.747 173.35 111.653C173.066 111.558 172.793 111.463 172.521 111.357C168.909 110.054 165.759 107.993 165.676 106.217C167.784 107.058 169.679 107.686 171.408 108.183C171.621 108.242 171.846 108.313 172.047 108.372C172.272 108.432 172.474 108.479 172.687 108.538C180.266 110.468 183.913 109.355 183.913 109.355L181.474 112.316C179.733 112.979 176.926 112.683 174.167 111.901H174.179Z" fill="#21242A"/>
<path d="M306.455 135.74C306.088 135.432 305.602 135.242 305.081 135.124C306.964 132.223 306.135 130.778 305.389 130.15C304.536 129.44 303.139 129.25 301.73 129.487C302.559 127.498 301.896 126.432 301.28 125.911C299.551 124.454 295.548 125.177 293.772 127.249C292.221 129.061 285.648 135.1 276.186 138.89C275.831 139.032 275.488 139.15 275.132 139.28C274.327 138.819 273.486 138.404 272.598 138.049C274.268 137.421 275.547 137.054 276.234 136.912C278.91 136.355 281.468 133.205 281.03 130.979C280.805 129.866 279.703 128.137 274.73 129.084C273.782 129.262 272.752 129.523 271.651 129.842C274.256 123.957 272.456 116.828 267.009 112.955L260.886 108.609L273.723 90.5147C278.14 84.2976 276.672 75.641 270.443 71.2239L229.552 42.2108C227.196 40.541 224.436 39.6529 221.559 39.6529C217.071 39.6529 212.855 41.8318 210.261 45.4792L200.871 58.7187C200.622 58.5292 200.385 58.3515 200.148 58.1858C199.343 51.5779 195.151 45.716 187.998 41.3581C180.822 36.9884 170.721 34.4542 160.702 35.3779C160.394 32.8437 159.53 30.4042 158.097 28.2015C155.634 24.4239 151.856 21.8423 147.439 20.9068C138.332 18.9884 129.38 24.8384 127.461 33.9331C126.538 38.3384 127.378 42.8502 129.842 46.616C130.931 48.2739 132.281 49.695 133.821 50.8555C132.53 52.9042 131.393 55.2371 130.481 57.8897L79.9745 65.0897C76.3153 65.6108 73.0824 67.5292 70.8561 70.4779C68.6416 73.4384 67.7061 77.0739 68.2272 80.7331L74.8469 127.213L63.064 131.027C63.0522 130.671 63.0403 130.316 63.0285 129.949C62.9693 128.137 62.9101 126.29 62.7798 124.407C63.7745 120.748 63.2298 116.792 61.1693 113.169C60.2337 111.475 59.2272 109.888 58.1969 108.384C58.1614 108.325 58.114 108.254 58.0666 108.195C53.1877 101.208 47.468 96.3055 43.264 93.8423C38.9298 91.3081 37.3193 92.5397 36.739 93.4989C35.5903 95.4292 36.9285 99.2305 39.2495 100.64C39.8535 101.007 40.9785 101.812 42.3758 103.008C41.393 103.044 40.4219 103.15 39.4745 103.316C39.1785 103.067 38.8943 102.83 38.5982 102.582C30.9601 95.8318 26.7916 87.9331 25.939 85.695C24.968 83.1489 21.4627 81.1476 19.3666 81.9292C18.6087 82.2134 17.6258 82.995 17.768 85.1739C16.5127 84.4515 15.1153 84.1555 14.0732 84.5463C13.1614 84.8897 11.9061 85.9673 12.7232 89.3423C12.1666 89.2713 11.6456 89.2831 11.1837 89.4608C10.1298 89.8515 8.62585 91.2134 10.343 95.9384C10.414 96.1515 10.5087 96.3766 10.5916 96.5897C9.57322 97.0871 8.37717 98.5673 9.96401 102.973C12.2022 109.154 18.0166 118.332 27.6087 125.544C28.3785 126.124 29.1482 126.657 29.9416 127.19L30.0482 127.261C32.0022 129.819 34.5956 131.867 37.6272 133.277C37.6272 133.336 37.6272 133.395 37.6509 133.442C37.6627 133.49 38.3259 135.527 39.1666 138.937C36.5851 140.252 34.4653 142.324 33.1272 144.953C31.4456 148.245 31.1495 151.987 32.2864 155.504L56.5627 230.524C58.4219 236.255 63.7035 240.104 69.7193 240.104C71.164 240.104 72.5969 239.879 73.9824 239.429L78.9798 237.819C76.5403 242.366 74.8232 245.161 74.7758 245.232L74.5627 245.563L74.7877 245.883C88.9627 265.624 115.217 277.241 145.378 277.241C146.267 277.241 147.155 277.241 148.055 277.205C176.736 276.554 201.7 265.198 213.198 247.565L213.471 247.15L213.115 246.807C211.73 245.504 210.451 244.249 209.231 243.005C212.476 240.898 214.809 237.771 215.519 236.741C216.55 237.238 217.592 237.534 218.657 237.558C218.717 237.558 218.776 237.558 218.835 237.558C223.264 237.558 226.296 233.425 226.769 232.727C241.525 221.82 246.368 208.936 250.252 198.574C251.259 195.874 252.218 193.34 253.26 191.066C258.98 178.608 265.801 169.312 266.689 168.116C270.064 167.808 273.238 166.742 275.961 164.978L276.068 164.942C276.992 164.705 277.915 164.457 278.827 164.173C290.29 160.596 298.864 153.894 303.044 148.825C306.017 145.225 305.413 143.413 304.619 142.584C304.761 142.419 304.915 142.241 305.057 142.075C308.278 138.179 307.307 136.367 306.431 135.645L306.455 135.74ZM302.156 148.174C298.26 152.887 289.722 159.637 278.496 163.142C278.2 163.237 277.892 163.32 277.596 163.403C277.513 163.403 277.442 163.403 277.359 163.427L277.169 163.486L276.731 163.616L275.784 163.9L275.559 163.971L275.405 164.042C274.884 164.386 274.327 164.694 273.771 164.978C273.593 165.073 273.415 165.155 273.238 165.25C272.598 165.558 271.923 165.819 271.248 166.055C270.384 166.352 269.484 166.588 268.56 166.766C267.293 167.003 266.002 167.133 264.676 167.133C264.356 167.133 264.107 167.382 264.084 167.702C264.084 167.702 264.084 167.713 264.084 167.725C264.084 168.057 264.344 168.317 264.676 168.317C264.842 168.317 265.007 168.305 265.173 168.305C263.196 171.041 257.275 179.627 252.194 190.675C251.128 192.984 250.169 195.542 249.151 198.266C245.314 208.498 240.542 221.24 226 231.945C225.94 231.992 225.893 232.04 225.857 232.099C225.834 232.146 222.861 236.587 218.705 236.48C217.58 236.457 216.467 236.09 215.365 235.427C213.459 234.278 211.588 232.182 209.788 229.186L208.592 226.19L196.477 194.228C196.821 191.99 197.211 189.917 197.614 188.07C198.846 182.409 200.125 178.845 200.148 178.774L200.243 178.525L200.196 178.442L201.546 178.134L202.315 177.957L203.085 177.779L224.271 172.936L226.106 183.629C226.106 183.629 226.13 183.677 226.13 183.7C224.851 185.417 223.667 187.04 222.577 188.567C222.435 188.769 222.293 188.97 222.151 189.171C222.009 189.361 221.878 189.562 221.736 189.752C211.232 204.554 209.231 210.215 209.125 210.523C209.018 210.83 209.184 211.174 209.492 211.269C209.551 211.292 209.622 211.304 209.681 211.304C209.93 211.304 210.155 211.15 210.238 210.902C210.261 210.83 212.334 204.98 223.217 189.716C223.359 189.503 223.501 189.313 223.655 189.1C223.809 188.887 223.975 188.662 224.128 188.449C227.859 183.262 232.56 177.069 238.481 169.703C241.631 165.783 243.313 161.484 245.101 156.937C245.444 156.073 245.776 155.208 246.131 154.332C246.178 154.616 246.427 154.817 246.711 154.817C246.735 154.817 246.759 154.817 246.794 154.817C246.806 154.817 246.818 154.817 246.83 154.805C247.138 154.746 247.339 154.462 247.303 154.154C247.232 153.598 247.185 153.017 247.185 152.461C247.185 152.236 247.209 151.999 247.221 151.774C247.256 151.075 247.339 150.377 247.493 149.69C247.789 148.387 248.298 147.132 248.997 145.948C249.731 144.704 250.667 143.555 251.815 142.513C251.922 142.407 252.028 142.3 252.147 142.205C252.609 141.803 253.864 140.784 255.036 139.861C255.605 139.423 256.138 138.996 256.576 138.677C260.898 135.586 265.244 133.395 269.046 131.986C269.365 131.867 269.685 131.749 269.993 131.642C270.289 131.536 270.585 131.441 270.881 131.346C272.361 130.873 273.735 130.505 274.955 130.28C277.856 129.736 279.644 130.079 279.869 131.24C280.177 132.815 278.01 135.361 275.997 135.775C275.109 135.953 273.273 136.509 270.893 137.48C270.088 137.232 269.259 137.03 268.418 136.888C268.098 136.829 267.79 137.054 267.731 137.374C267.719 137.445 267.731 137.516 267.731 137.575C267.778 137.812 267.956 138.013 268.205 138.049C268.501 138.096 268.797 138.191 269.093 138.25C269.401 138.321 269.721 138.38 270.028 138.463C270.325 138.546 270.621 138.641 270.917 138.736C271.852 139.032 272.752 139.411 273.605 139.837C273.853 139.967 274.114 140.074 274.351 140.216C274.564 140.334 274.777 140.488 274.978 140.619C275.31 140.82 275.665 141.021 275.973 141.246C276.08 141.317 276.198 141.353 276.317 141.353C276.494 141.353 276.66 141.27 276.778 141.128C276.778 141.128 276.79 141.128 276.802 141.104C276.992 140.844 276.932 140.465 276.66 140.275C276.565 140.204 276.459 140.157 276.364 140.086C276.435 140.05 276.518 140.027 276.589 140.003C286.264 136.13 293.026 129.902 294.625 128.03C295.963 126.467 299.243 125.792 300.475 126.823C301.15 127.391 301.007 128.492 300.131 129.949C299.243 130.304 298.414 130.825 297.846 131.5C296.318 133.277 289.876 139.221 280.568 143.023C280.26 143.141 280.118 143.496 280.248 143.792C280.248 143.816 280.284 143.84 280.296 143.863C280.438 144.112 280.746 144.23 281.018 144.124C285.175 142.43 288.775 140.311 291.652 138.298C295.359 135.704 297.857 133.312 298.746 132.282C299.042 131.938 299.432 131.654 299.871 131.405C300.202 131.216 300.557 131.05 300.936 130.92C302.31 130.458 303.838 130.446 304.596 131.074C305.389 131.737 305.057 133.146 303.719 135.005C301.978 135.053 300.025 135.811 298.923 137.102C297.55 138.7 291.711 144.148 283.185 147.961C282.889 148.091 282.759 148.446 282.889 148.742C282.889 148.754 282.913 148.766 282.925 148.79C283.078 149.05 283.398 149.169 283.671 149.038C292.398 145.13 298.414 139.517 299.823 137.871C300.463 137.125 301.552 136.592 302.642 136.332C302.95 136.261 303.246 136.213 303.542 136.19C303.802 136.166 304.051 136.178 304.288 136.19C304.844 136.237 305.33 136.379 305.661 136.663C306.561 137.421 306.005 139.162 304.134 141.436C303.968 141.637 303.79 141.838 303.613 142.04C301.659 141.27 298.45 142.04 296.91 143.84C295.75 145.202 290.74 149.938 283.303 153.68C283.007 153.823 282.889 154.178 283.043 154.474C283.043 154.474 283.043 154.474 283.055 154.498C283.209 154.77 283.552 154.888 283.836 154.746C291.486 150.898 296.507 146.125 297.798 144.621C298.876 143.354 301.209 142.691 302.713 143.023C302.938 143.07 303.139 143.141 303.317 143.236C303.423 143.295 303.542 143.342 303.636 143.413C303.696 143.461 303.743 143.532 303.79 143.591C304.442 144.42 303.861 146.066 302.109 148.186L302.156 148.174ZM148.055 276.104C117.325 276.803 90.4311 265.399 76.0074 245.587C76.5877 244.616 78.3522 241.655 80.614 237.369C80.7443 237.12 80.8745 236.871 81.0048 236.623C81.1351 236.374 81.2653 236.125 81.3956 235.877C85.3272 228.298 90.443 217.32 93.7351 205.952C96.6127 196.063 98.8627 185.465 100.414 177.128C100.461 176.844 100.521 176.583 100.568 176.299C100.663 175.79 100.757 175.292 100.84 174.795C101.184 172.912 101.48 171.183 101.74 169.632C101.776 169.43 101.811 169.217 101.847 169.016C101.882 168.803 101.918 168.602 101.953 168.4C101.965 168.305 101.989 168.211 102.001 168.128C102.557 164.705 102.889 162.432 102.972 161.899C103.765 160.596 110.503 149.37 113.559 141.933C113.405 141.779 113.263 141.613 113.121 141.448C112.978 141.282 112.825 141.128 112.682 140.95C112.161 140.275 111.711 139.517 111.297 138.724C110.835 137.848 110.456 136.912 110.136 135.917C109.888 135.112 109.663 134.295 109.509 133.43C109.378 132.684 109.272 131.927 109.225 131.145C109.201 130.825 109.201 130.517 109.189 130.198C109.177 129.807 109.165 129.404 109.177 129.013C109.189 128.338 109.248 127.663 109.319 126.988C109.343 126.728 109.355 126.467 109.39 126.195C109.438 125.84 109.509 125.449 109.592 125.046C109.71 124.466 109.852 123.85 110.042 123.199C110.172 122.725 110.338 122.24 110.515 121.742C110.551 121.648 110.586 121.541 110.622 121.446C110.752 121.091 110.894 120.736 111.048 120.38C111.131 120.191 111.202 120.013 111.285 119.824C111.285 119.8 111.309 119.777 111.321 119.765C111.392 119.611 111.475 119.457 111.557 119.303C111.593 119.232 111.628 119.161 111.664 119.102C111.711 119.007 111.759 118.912 111.806 118.805C111.913 118.592 112.043 118.379 112.161 118.166C112.256 118 112.351 117.834 112.446 117.68C112.659 117.337 112.884 116.982 113.121 116.638C113.452 116.153 113.807 115.655 114.198 115.17C114.565 114.708 114.968 114.234 115.394 113.784C115.809 113.346 116.247 112.908 116.721 112.47C117.135 112.091 117.573 111.712 118.035 111.345C107.271 107.2 95.3811 112.849 90.7153 119.587C90.0285 120.582 89.2943 121.695 88.5482 122.855L76.0193 126.905L69.4232 80.6265C68.4403 73.7108 73.2482 67.3042 80.164 66.3213L130.102 59.2042C128.373 64.8765 127.663 71.9463 128.705 80.745L130.848 95.7371C130.931 96.1042 132.826 104.713 124.844 109.225C124.631 109.32 122.393 110.279 119.681 112.067C119.563 112.008 119.432 111.937 119.314 111.878C119.314 111.878 119.302 111.89 119.29 111.902C118.769 112.292 118.272 112.707 117.798 113.121C117.325 113.548 116.863 113.974 116.448 114.412C116.353 114.519 116.259 114.625 116.164 114.72C115.844 115.075 115.525 115.43 115.24 115.786C114.85 116.271 114.494 116.757 114.163 117.242C114.032 117.444 113.89 117.645 113.76 117.846C113.653 118 113.571 118.166 113.476 118.32C113.381 118.474 113.298 118.628 113.215 118.782C113.18 118.841 113.144 118.912 113.109 118.971C113.061 119.066 113.002 119.161 112.955 119.244C112.848 119.445 112.753 119.658 112.647 119.859C112.564 120.037 112.469 120.215 112.386 120.392C112.303 120.582 112.232 120.759 112.15 120.949C111.984 121.34 111.83 121.719 111.7 122.086C111.676 122.145 111.652 122.204 111.628 122.263C111.439 122.808 111.273 123.341 111.131 123.862C110.953 124.525 110.811 125.141 110.717 125.721C110.669 125.958 110.634 126.183 110.598 126.396C110.539 126.823 110.515 127.261 110.48 127.687C110.421 128.374 110.397 129.061 110.397 129.748C110.397 129.854 110.397 129.949 110.397 130.055C110.409 130.695 110.456 131.323 110.527 131.938C110.61 132.661 110.728 133.359 110.882 134.034C110.906 134.117 110.918 134.2 110.942 134.283C111.155 135.183 111.415 136.059 111.747 136.877C111.889 137.208 112.055 137.528 112.209 137.848C112.517 138.475 112.848 139.055 113.227 139.612C113.334 139.754 113.417 139.92 113.523 140.062C113.559 140.109 113.594 140.18 113.63 140.228C113.772 140.405 113.926 140.559 114.068 140.725C114.115 140.607 114.163 140.477 114.21 140.358C115.501 141.4 118.461 143.496 121.848 143.804C121.848 143.958 121.872 144.112 121.884 144.266C121.884 144.302 121.884 144.337 121.884 144.373C121.931 145.083 122.026 145.817 122.203 146.587C122.878 149.536 124.489 152.84 126.834 156.013C127.177 156.475 127.532 156.925 127.9 157.375C128.231 157.778 128.551 158.169 128.906 158.559C130.576 160.43 132.494 162.195 134.638 163.77C134.863 163.936 135.088 164.113 135.313 164.267C135.561 164.433 135.81 164.599 136.059 164.765C137.705 165.854 139.446 166.837 141.293 167.654C148.943 170.994 156.64 170.745 163.686 167.086C162.928 168.945 162.561 170.603 163.094 171.846C163.189 172.083 163.331 172.284 163.485 172.486C163.39 172.533 163.284 172.569 163.201 172.628C161.188 173.895 160.43 178.348 158.393 190.237C157.884 193.221 157.292 196.655 156.593 200.599C156.107 200.599 155.634 200.599 155.148 200.599C155.148 200.575 155.16 200.563 155.16 200.54L155.918 192.227C155.918 192.227 155.918 192.227 155.918 192.215C156.107 190.557 154.58 189.231 152.472 188.342L152.957 182.137C152.957 182.137 152.957 182.125 152.957 182.113C152.957 182.113 152.957 182.102 152.957 182.09C152.957 182.054 152.946 182.019 152.934 181.983C152.934 181.948 152.922 181.924 152.91 181.888C152.709 180.775 150.968 180.254 149.31 180.254C147.652 180.254 145.828 180.799 145.698 181.971C145.698 181.995 145.675 182.019 145.675 182.054L145.272 187.194C142.88 187.383 140.926 188.248 140.5 190.083C140.5 190.107 140.5 190.119 140.5 190.142C140.464 190.391 140.476 190.64 140.5 190.877C140.5 190.888 140.5 190.912 140.5 190.924C140.5 191.658 140.5 192.973 140.5 194.358C140.5 194.998 140.5 195.649 140.5 196.265C140.5 196.963 140.5 197.627 140.5 198.171C140.5 198.692 140.5 199.107 140.5 199.367C139.434 199.202 138.392 199.024 137.35 198.834C137.539 197.603 138.084 194.252 138.581 192.688C138.617 192.617 138.628 192.546 138.652 192.475C138.711 192.321 138.771 192.167 138.794 192.002C138.794 191.978 138.794 191.966 138.794 191.942C138.889 190.865 138.415 189.929 137.563 189.148C136.935 188.579 136.106 188.094 135.171 187.703L136 184.316L136.272 183.227L136.402 182.705C136.497 182.362 136.497 181.734 135.644 181C135.609 180.965 135.561 180.941 135.526 180.917C135.289 180.728 135.028 180.562 134.732 180.396C134.365 180.195 133.951 180.017 133.513 179.875C132.672 179.603 131.831 179.473 131.132 179.52C129.948 179.603 129.593 180.159 129.486 180.479C129.486 180.479 129.486 180.503 129.486 180.515V180.586L129.463 180.609L128.006 186.554C125.697 186.732 123.814 187.525 123.506 189.183C123.447 189.515 123.459 189.834 123.53 190.142C123.53 190.166 123.506 190.178 123.506 190.202L122.689 195.021C116.768 192.937 112.576 190.569 111.403 188.532C111.238 188.248 110.882 188.153 110.598 188.319C110.314 188.484 110.219 188.84 110.385 189.124C112.742 193.233 125.934 198.503 141.352 200.765C141.565 200.8 141.79 200.824 142.003 200.859C142.217 200.895 142.442 200.919 142.655 200.954C147.013 201.534 151.513 201.878 156.001 201.878C164.456 201.878 172.805 200.67 179.756 197.638C180.052 197.508 180.194 197.165 180.064 196.857C179.934 196.561 179.59 196.419 179.282 196.549C174.084 198.811 167.997 200.007 161.65 200.433C168.305 178.608 168.53 174.866 167.819 173.48C168.293 173.279 168.743 172.971 169.134 172.545C171.123 170.413 171.727 165.771 171.206 161.733C171.265 161.674 171.336 161.627 171.396 161.567C172.26 163.569 175.09 168.128 183.19 168.886L184.517 169.004L183.723 167.938C183.723 167.938 182.409 166.15 181.343 163.817C181.189 163.486 181.047 163.13 180.905 162.775C180.775 162.455 180.668 162.136 180.55 161.804C179.969 160.028 179.673 158.121 180.171 156.44C180.715 154.569 181.319 152.84 182.705 150.72C183.025 150.223 183.392 149.702 183.806 149.157C183.842 149.121 183.865 149.074 183.901 149.038C184.825 147.83 186.009 146.48 187.525 144.929C187.821 144.586 188.128 144.219 188.436 143.816C188.614 143.591 188.78 143.366 188.957 143.129C190.686 140.702 192.38 137.184 192.557 131.998C192.569 131.548 192.581 131.074 192.557 130.6C192.557 130.375 192.557 130.15 192.534 129.925C192.522 129.546 192.486 129.155 192.463 128.765C192.463 128.741 192.463 128.705 192.463 128.682C192.427 128.291 192.392 127.9 192.344 127.498C192.309 127.237 192.273 126.965 192.238 126.692C192.202 126.42 192.178 126.171 192.131 125.887C191.989 125.046 191.823 124.194 191.61 123.294C191.586 123.223 191.586 123.14 191.61 123.069C191.29 121.577 190.923 120.12 190.58 118.734C190.414 118.048 190.236 117.384 190.082 116.745C190.082 116.745 190.082 116.745 190.082 116.721C192.143 113.678 194.061 110.102 194.559 106.809L197.886 102.132C198.585 109.438 203.689 111.144 203.748 111.167C203.807 111.191 203.867 111.191 203.926 111.191C204.092 111.191 204.246 111.12 204.352 111.002C204.506 110.836 204.553 110.599 204.471 110.386C204.435 110.291 201.996 103.636 202.718 95.3108L207.893 88.016C210.356 84.5344 214.264 82.6871 218.219 82.6871C220.753 82.6871 223.311 83.445 225.526 85.02L259.323 109L259.809 109.344L260.294 109.687L266.417 114.033C271.71 117.787 273.238 124.88 270.182 130.434C265.99 131.844 260.993 134.224 256.055 137.741C255.996 137.788 255.925 137.836 255.865 137.883C254.385 138.949 252.917 140.109 251.472 141.377C251.472 141.377 251.472 141.4 251.448 141.4C248.275 144.148 246.427 147.724 246.155 151.549C245.409 153.242 244.746 154.924 244.094 156.582C242.342 161.046 240.696 165.25 237.652 169.04C233.626 174.049 230.168 178.525 227.184 182.504L225.514 172.77L225.893 172.687C227.634 172.284 228.771 170.603 228.475 168.827L226.118 154.782C225.846 153.171 224.448 152.07 222.826 152.011C222.767 152.011 222.719 152.011 222.719 151.987C222.376 150.021 222.092 148.955 221.784 147.523C221.736 147.309 221.689 147.084 221.642 146.848C221.594 146.634 221.559 146.409 221.511 146.173C221.44 145.829 221.381 145.45 221.31 145.036C219.486 134.496 209.646 123.234 194.95 127.877C194.713 127.948 194.476 128.019 194.239 128.102C194.061 128.161 193.872 128.232 193.694 128.303C193.682 128.303 193.659 128.303 193.647 128.303C193.647 128.338 193.647 128.362 193.647 128.386C193.682 128.765 193.694 129.144 193.718 129.511C193.718 129.712 193.753 129.913 193.753 130.103C193.978 137.48 191.373 142.052 189.171 144.823C188.993 145.048 188.827 145.249 188.661 145.438C188.484 145.652 188.306 145.853 188.14 146.03C189.644 156.641 193.552 166.802 196.276 172.959C196.442 173.327 196.596 173.682 196.75 174.025C196.927 174.404 197.093 174.759 197.247 175.103C198.111 176.938 198.751 178.205 199.011 178.691C198.964 178.833 198.881 179.07 198.798 179.342C198.407 180.538 197.685 182.919 196.927 186.128C196.513 187.88 196.098 189.882 195.707 192.096C195.636 192.511 195.565 192.925 195.494 193.363C195.435 193.707 195.388 194.074 195.328 194.429C194.642 199 194.156 204.258 194.263 209.836C194.547 225.266 198.585 233.532 207.265 242.745C208.722 244.296 210.297 245.859 212.026 247.494C200.622 264.57 176.203 275.548 148.126 276.187L148.055 276.104ZM69.743 238.991C64.4022 238.991 59.4403 235.58 57.7114 230.228L33.4351 155.208C31.5285 149.299 34.193 143.011 39.4864 140.18C40.6114 144.905 41.9851 151.75 42.6719 159.53C42.8969 162.017 42.9324 164.741 42.9798 167.619C43.1574 178.679 43.3824 192.44 53.6258 207.68C53.8508 208.509 55.343 213.53 59.6416 214.952C60.3758 215.188 61.1456 215.319 61.9508 215.319C64.8522 215.319 68.2153 213.732 72.0048 210.546L73.7811 208.45C74.5035 209.303 75.9364 210.677 78.1508 211.186C81.4548 211.944 85.4337 207.041 85.4337 207.041L94.8245 197.425C94.1377 200.173 93.4035 202.92 92.6101 205.62C89.1758 217.438 83.7522 228.854 79.7969 236.386L73.639 238.375C72.3482 238.79 71.0337 238.991 69.743 238.991V238.991ZM39.6166 134.153C39.6759 134.177 39.7469 134.188 39.8061 134.188C40.0311 134.188 40.2443 134.046 40.3272 133.821C40.3272 133.821 40.3272 133.809 40.3272 133.798C40.4101 133.513 40.268 133.205 39.9837 133.111C38.4206 132.554 36.9759 131.82 35.6377 130.955C34.9745 130.529 34.3469 130.067 33.7548 129.57C33.4232 129.286 33.1035 129.002 32.7837 128.705C32.5232 128.457 32.2745 128.184 32.0258 127.924C31.6351 127.498 31.2443 127.059 30.9009 126.586L30.3561 126.171L29.764 125.721L29.5272 125.544L29.2785 125.354C29.2193 125.307 29.1482 125.283 29.0653 125.259C28.8048 125.07 28.5443 124.892 28.2956 124.703C18.893 117.621 13.114 108.384 11.0298 102.641C10.0706 100.012 10.0943 98.2358 11.0416 97.691C11.1008 97.6555 11.1482 97.6081 11.2193 97.5844C11.3258 97.5489 11.4561 97.5371 11.5745 97.5252C11.764 97.5015 11.9653 97.4897 12.1785 97.5252C13.7298 97.7029 15.7548 99.1358 16.3706 100.711C17.0811 102.57 20.2193 108.74 26.1166 114.933C26.318 115.146 26.6614 115.158 26.8864 114.969C26.8864 114.969 26.8982 114.969 26.9101 114.957C27.1351 114.744 27.1351 114.388 26.9337 114.175C21.1903 108.148 18.064 102.002 17.4245 100.32C16.5719 98.1055 13.8127 96.3055 11.7285 96.3884C11.6219 96.1279 11.5272 95.8673 11.4324 95.6187C10.4258 92.8239 10.4851 90.9884 11.6219 90.5621C12.0364 90.4081 12.5693 90.4437 13.114 90.5858C13.3272 90.645 13.5522 90.716 13.7772 90.8108C14.0258 90.9173 14.2745 91.0476 14.5114 91.2015C15.5061 91.8055 16.3943 92.7173 16.7614 93.6765C17.543 95.7134 21.3087 103.008 28.2127 109.616C28.4259 109.817 28.7456 109.817 28.9587 109.628C28.9706 109.628 28.9943 109.616 29.0061 109.604C29.2193 109.379 29.2074 109.036 28.9943 108.823C22.2324 102.357 18.5614 95.2634 17.8035 93.2858C17.1995 91.7108 15.6127 90.3371 14.0022 89.7094C13.3508 87.4831 13.5285 86.0265 14.5114 85.6594C15.4469 85.316 16.9035 85.8489 18.064 86.7608C18.3482 86.9858 18.6087 87.2344 18.8337 87.495C19.189 87.8976 19.4851 88.3358 19.6627 88.7858C20.0416 89.7805 21.0719 91.8884 22.7535 94.5173C24.8851 97.8568 28.0943 102.049 32.3811 105.886C32.5943 106.075 32.9022 106.063 33.1035 105.886C33.1272 105.874 33.1509 105.862 33.1627 105.838C33.364 105.613 33.3522 105.258 33.1153 105.057C25.6193 98.3542 21.5456 90.5858 20.7048 88.395C20.3851 87.566 19.793 86.8081 19.0706 86.1687C18.7272 84.4752 18.9758 83.3739 19.8166 83.0542C20.018 82.9831 20.2311 82.9476 20.468 82.9476C22.043 82.9476 24.3166 84.4871 24.9561 86.1805C25.8324 88.4779 30.1074 96.6015 37.9114 103.505C37.9943 103.577 38.0772 103.636 38.1482 103.707C38.018 103.742 37.8759 103.754 37.7337 103.802C37.4377 103.884 37.2719 104.192 37.3548 104.488C37.3548 104.488 37.3666 104.5 37.3666 104.512C37.4495 104.737 37.6508 104.891 37.8877 104.891C37.9351 104.891 37.9943 104.891 38.0416 104.867C38.4206 104.761 38.8232 104.69 39.214 104.607C39.439 104.559 39.664 104.5 39.9008 104.453C40.1614 104.405 40.4219 104.382 40.6706 104.358C41.6653 104.228 42.6719 104.18 43.6903 104.216C43.9745 104.216 44.2706 104.216 44.5548 104.252C44.8508 104.275 45.1587 104.323 45.4548 104.358C45.7864 104.394 46.1298 104.417 46.4614 104.477C46.7101 104.512 46.9232 104.405 47.0298 104.204C47.0653 104.145 47.089 104.086 47.1008 104.027C47.1482 103.719 46.9469 103.434 46.6509 103.387C45.8101 103.245 44.9574 103.162 44.1166 103.115C42.1982 101.398 40.6469 100.261 39.8772 99.7871C38.1008 98.7094 36.9048 95.5594 37.7337 94.1621C38.3495 93.12 40.1732 93.3923 42.743 94.8963C46.8522 97.3002 52.4535 102.108 57.2377 108.977C57.5574 109.438 57.9482 110.054 58.339 110.682C58.7416 111.321 59.1561 111.996 59.4995 112.565C59.689 112.873 59.8785 113.18 60.0561 113.5C60.1272 113.619 60.1864 113.725 60.2337 113.808C60.3048 113.938 60.364 114.057 60.4232 114.187C61.1693 115.573 61.6785 117.005 61.939 118.45C62.1877 119.788 62.2469 121.127 62.093 122.441C62.0101 123.163 61.8443 123.886 61.6193 124.596C61.5601 124.786 61.5127 124.987 61.4535 125.177C61.264 125.709 61.039 126.242 60.7785 126.74C60.6482 127 60.743 127.32 60.9916 127.462C60.9916 127.462 61.0035 127.474 61.0153 127.486C61.0982 127.533 61.1811 127.545 61.2758 127.545C61.4772 127.545 61.6666 127.438 61.7732 127.249C61.7732 127.249 61.7732 127.237 61.7732 127.225C61.8206 128.184 61.8443 129.144 61.8798 130.091C61.8916 130.565 61.9153 131.038 61.9272 131.512C61.9272 131.713 61.939 131.927 61.9508 132.128C61.9508 132.329 61.9627 132.542 61.9745 132.744C62.1403 136.663 62.4719 140.453 63.8219 144.337C76.5877 181.107 76.5877 192.523 76.5758 192.641C76.5758 192.973 76.8364 193.233 77.1561 193.245C77.4759 193.245 77.7482 192.984 77.7482 192.665C77.7482 192.286 77.7719 184.73 70.7377 161.698C70.7495 161.674 70.7732 161.662 70.7851 161.638L76.8008 150.933L78.3522 151.869L79.0035 152.259L79.6548 152.65L101.196 165.629C101.053 166.505 100.888 167.524 100.71 168.637C100.675 168.838 100.639 169.04 100.603 169.253C100.568 169.454 100.532 169.655 100.497 169.869C100.153 171.87 99.7508 174.156 99.289 176.666L73.2601 207.266L71.1403 209.765C71.0456 209.836 70.9627 209.895 70.8798 209.978C66.5693 213.519 62.8982 214.845 59.9969 213.898C56.0416 212.595 54.739 207.42 54.7272 207.361C54.7153 207.29 54.6798 207.23 54.6443 207.171C44.543 192.203 44.3298 178.596 44.1522 167.666C44.1048 164.765 44.0574 162.029 43.8324 159.495C43.1219 151.513 41.7127 144.503 40.5522 139.719C40.5048 139.529 40.4574 139.316 40.4101 139.138C40.3627 138.937 40.3153 138.759 40.268 138.558C39.7351 136.427 39.2851 134.852 39.0245 133.987C39.214 134.058 39.4035 134.141 39.6048 134.212L39.6166 134.153ZM96.2574 182.007L82.7101 198.23L81.0403 199.9L96.2574 182.007V182.007ZM86.7008 132.815L85.6706 132.211L84.7706 131.69C84.5574 131.571 84.4864 131.299 84.6048 131.086C84.7232 130.873 84.9956 130.802 85.2087 130.92L86.1324 131.465L87.1745 132.069L87.5298 132.282L100.213 139.648C100.426 139.766 100.497 140.038 100.378 140.252C100.296 140.394 100.142 140.477 99.9995 140.477C99.9285 140.477 99.8456 140.453 99.7745 140.417L87.0087 133.004L86.7008 132.827V132.815ZM75.6048 128.255L76.1732 128.066L87.5416 124.383C86.2153 126.527 84.8535 128.824 83.5864 131.098C83.5864 131.098 83.5745 131.098 83.5509 131.098C81.964 130.695 80.3061 131.299 79.714 132.815L77.6061 138.203L77.1679 139.328L76.7298 140.453L74.3732 146.48C73.8403 147.842 74.3732 149.382 75.6166 150.14L75.7706 150.234L70.2403 160.075C68.7719 155.327 67.0074 149.95 64.8995 143.875C63.5732 140.038 63.2535 136.237 63.0995 132.294L75.0009 128.445L75.5693 128.255H75.6048ZM221.571 40.8489C224.105 40.8489 226.663 41.6068 228.877 43.1818L269.768 72.195C275.464 76.2331 276.814 84.1318 272.764 89.8279L263.977 102.203L241.453 85.02C238.422 82.9358 234.04 81.6213 230.097 86.7608L226.118 83.9423C223.761 82.2726 221.002 81.3844 218.125 81.3844C213.636 81.3844 209.421 83.5634 206.827 87.2108L202.919 92.7173C203.346 90.0884 204.103 87.3647 205.371 84.6529C211.623 71.295 206.33 63.3963 201.794 59.4765L211.232 46.166C213.696 42.6844 217.603 40.8371 221.559 40.8371L221.571 40.8489ZM138.581 25.5844C147.427 21.9134 152.436 27.0765 154.177 29.4568C154.319 29.6581 154.272 29.9305 154.082 30.0726C154 30.1318 153.917 30.1555 153.822 30.1555C153.68 30.1555 153.55 30.0963 153.467 29.9779C151.844 27.7634 147.19 22.9673 138.925 26.4015C138.7 26.4963 138.439 26.3897 138.344 26.1647C138.25 25.9397 138.356 25.6792 138.581 25.5844V25.5844ZM134.164 48.0371C139.375 40.6476 146.255 36.4081 155.8 34.7029C156.036 34.6555 156.273 34.8213 156.321 35.0581C156.368 35.295 156.202 35.5318 155.965 35.5792C146.657 37.2489 139.967 41.37 134.898 48.5463C134.815 48.6647 134.673 48.7358 134.531 48.7358C134.448 48.7358 134.353 48.7121 134.271 48.6529C134.069 48.5108 134.022 48.2384 134.164 48.0371V48.0371ZM168.186 171.657C167.653 172.225 167.05 172.498 166.351 172.498C166.078 172.498 165.782 172.462 165.475 172.379C164.788 172.178 164.35 171.834 164.148 171.349C163.663 170.2 164.35 168.246 165.38 166.091C165.534 165.771 165.688 165.452 165.853 165.132C166.043 164.753 166.232 164.374 166.434 163.995C166.588 163.699 166.742 163.391 166.907 163.095C167.736 161.52 168.589 159.886 169.169 158.37C169.489 159.246 169.726 160.205 169.892 161.2C169.927 161.437 169.963 161.674 169.998 161.911C170.022 162.148 170.046 162.384 170.069 162.633C170.389 166.269 169.714 170.046 168.198 171.657H168.186ZM157.753 200.516C158.44 196.667 159.009 193.304 159.518 190.379C161.318 179.852 162.218 174.558 163.793 173.575C164.136 173.362 164.563 173.338 165.155 173.504C165.155 173.504 165.167 173.504 165.178 173.504C165.569 173.623 165.948 173.67 166.315 173.682C166.493 173.717 166.576 173.765 166.647 173.848C167.5 175.127 165.617 183.084 160.323 200.421C159.482 200.469 158.63 200.492 157.777 200.504L157.753 200.516ZM203.31 63.2423C203.464 63.1476 203.642 63.1594 203.784 63.2423C203.831 63.2779 203.878 63.3252 203.914 63.3726C203.973 63.4673 204.021 63.5621 204.08 63.6568C207.182 68.9029 206.046 73.8529 205.998 74.066C205.951 74.2673 205.761 74.4094 205.572 74.4094C205.536 74.4094 205.501 74.4094 205.465 74.3976C205.228 74.3384 205.075 74.1015 205.134 73.8647C205.146 73.8173 206.282 68.8673 203.156 63.8463C203.026 63.6331 203.097 63.3608 203.298 63.2305L203.31 63.2423ZM185.192 120.913C185.061 121.067 184.931 121.233 184.813 121.363C184.671 121.529 184.552 121.671 184.422 121.813C183.771 122.548 183.344 123.009 183.321 123.021C183.321 123.021 183.321 123.045 183.297 123.057C183.238 123.128 183.19 123.223 183.167 123.317C183.167 123.329 183.155 123.341 183.155 123.353C182.811 126.053 181.84 127.829 180.182 128.8C179.614 129.132 178.963 129.345 178.276 129.487C178.015 129.534 177.743 129.582 177.459 129.605C177.21 129.629 176.961 129.653 176.701 129.653C173.622 129.712 169.915 128.469 166.742 127.225C166.528 127.142 166.315 127.059 166.102 126.977C165.889 126.894 165.676 126.799 165.463 126.716C165.06 126.55 164.657 126.384 164.29 126.23L163.9 126.065C163.592 125.946 163.248 126.088 163.13 126.384C163.011 126.692 163.153 127.036 163.45 127.154L163.84 127.32C164.409 127.557 165.025 127.805 165.664 128.054C165.877 128.137 166.078 128.22 166.303 128.303C166.517 128.386 166.718 128.469 166.931 128.552C168.293 129.073 169.726 129.57 171.171 129.973L169.453 138.144C169.406 138.345 169.477 138.558 169.631 138.7L170.022 139.055L170.46 139.458L170.898 139.861L172.58 141.4L173.48 142.229C173.042 142.573 172.592 142.904 172.142 143.236C171.206 143.923 170.259 144.586 169.3 145.202C169.146 145.296 169.003 145.391 168.85 145.486C168.814 145.509 168.778 145.533 168.755 145.545C168.577 145.652 168.4 145.758 168.234 145.865C168.234 145.865 168.222 145.865 168.21 145.877C168.021 145.995 167.819 146.113 167.63 146.22C157.777 151.94 146.717 152.579 135.692 132.767C138.001 131.725 139.896 130.648 141.021 129.594C140.807 130.967 140.606 132.009 140.488 132.602C140.417 132.921 140.63 133.241 140.95 133.3C140.985 133.3 141.032 133.312 141.068 133.312C141.34 133.312 141.589 133.123 141.648 132.838C141.897 131.666 142.418 128.859 142.785 124.963C143.057 122.879 143.164 120.298 143.164 117.68C143.176 116.105 143.152 114.436 143.069 112.719C143.022 111.463 142.963 110.291 142.903 109.225C142.963 109.355 143.01 109.486 143.069 109.628C144.68 113.382 148.256 118.699 156.119 122.713C156.202 122.761 156.297 122.773 156.392 122.773C156.605 122.773 156.818 122.654 156.925 122.453C157.078 122.157 156.96 121.802 156.664 121.659C142.951 114.661 142.619 103.541 142.631 102.44V102.321C142.631 102.321 142.631 102.286 142.619 102.274C142.619 102.191 142.596 102.108 142.548 102.025C142.536 101.99 142.501 101.966 142.477 101.942C142.453 101.907 142.43 101.871 142.394 101.836C142.371 101.824 142.347 101.812 142.323 101.8C142.311 101.8 142.3 101.765 142.276 101.765C142.217 101.741 136.615 99.1594 134.803 94.1502C133.844 91.4858 134.105 88.5963 135.585 85.5292C135.703 85.2923 136.746 83.2555 138.936 82.7937C140.63 82.4384 142.56 83.1252 144.68 84.8187C143.543 87.5305 144.396 88.8687 145.094 89.9344C145.71 90.87 146.16 91.5568 145.272 93.2147C145.118 93.4989 145.225 93.866 145.509 94.02C145.603 94.0673 145.698 94.091 145.793 94.091C146.006 94.091 146.207 93.9726 146.314 93.7831C147.534 91.5094 146.764 90.3371 146.077 89.295C145.414 88.3002 144.81 87.341 145.876 85.0081C145.876 85.0081 145.876 85.0081 145.888 84.9963C149.689 79.6437 149.571 75.3568 149.464 71.5792C149.357 67.6358 149.275 64.4621 153.775 61.0989C153.928 60.9923 154.082 60.8739 154.248 60.7673C154.378 60.6726 154.497 60.5897 154.627 60.495C154.663 60.4713 154.698 60.4476 154.734 60.4239C165.652 53.2239 190.734 52.9634 198.561 61.9634C198.692 62.1173 198.822 62.2831 198.952 62.4371C198.988 62.4844 199.035 62.5318 199.071 62.5792C199.118 62.7568 199.153 62.9344 199.201 63.1239C199.521 64.5213 199.781 66.1555 199.864 67.991C199.864 68.0858 199.864 68.1805 199.864 68.2752C199.864 68.4173 199.864 68.5713 199.864 68.7252C199.864 69.0687 199.864 69.4002 199.864 69.7437C199.864 69.8265 199.864 69.9213 199.864 70.0042C199.864 70.2055 199.852 70.395 199.84 70.5963C199.757 72.5502 199.461 74.67 198.869 76.9437C197.555 75.1081 195.518 73.0476 192.652 72.3134C192.451 72.266 192.238 72.2187 192.025 72.1831C191.811 72.1476 191.586 72.1121 191.361 72.0884C190.201 71.97 188.922 72.0884 187.525 72.491C187.205 72.5858 187.027 72.9055 187.122 73.2252C187.217 73.545 187.536 73.7226 187.856 73.6279C188.815 73.3437 189.715 73.2371 190.544 73.2371C190.781 73.2371 191.006 73.2608 191.231 73.2844C191.456 73.3081 191.693 73.32 191.906 73.3555C195.139 73.9476 197.271 76.4818 198.443 78.3884C197.638 80.9937 196.442 83.7647 194.689 86.666C194.677 86.6897 194.677 86.7134 194.665 86.7489C194.653 86.7844 194.63 86.82 194.618 86.8673C194.618 86.9029 194.618 86.9384 194.618 86.9858C194.618 87.0213 194.618 87.0568 194.618 87.0923C194.618 87.1397 194.642 87.1752 194.665 87.2108C194.665 87.2344 194.677 87.2581 194.689 87.2818C194.819 87.495 194.938 87.7081 195.056 87.9213C195.127 88.0634 195.222 88.241 195.34 88.4187C198.621 94.6358 197.614 101.374 192.557 106.265C192.321 106.49 192.321 106.869 192.546 107.105C192.569 107.129 192.605 107.141 192.628 107.165C192.735 107.236 192.853 107.295 192.972 107.295C193.019 107.295 193.067 107.283 193.126 107.271C193.102 107.378 193.09 107.484 193.067 107.591C192.913 108.207 192.7 108.834 192.463 109.462C190.817 113.832 187.347 118.332 185.18 120.902L185.192 120.913ZM195.175 53.2476C195.103 53.295 195.021 53.3068 194.95 53.3068C194.796 53.3068 194.653 53.2358 194.571 53.0937C190.378 46.1542 179.318 39.12 166.303 39.0963C166.055 39.0963 165.853 38.895 165.865 38.6463C165.865 38.3976 166.067 38.2081 166.315 38.2081C179.661 38.22 191.018 45.4792 195.34 52.6318C195.471 52.845 195.4 53.1173 195.186 53.2358L195.175 53.2476ZM146.385 187.679L146.432 187.087L146.717 183.381C147.415 183.712 148.363 183.866 149.275 183.866C150.092 183.866 150.944 183.736 151.607 183.463L151.264 187.857L151.217 188.461L151.193 188.721C151.169 188.78 151.051 188.875 150.861 188.982C150.471 189.183 149.76 189.396 148.742 189.396C147.214 189.396 146.35 188.911 146.29 188.792L146.326 188.271L146.373 187.679H146.385ZM149.275 182.682C147.747 182.682 146.882 182.196 146.823 182.042C146.823 182.042 146.823 182.03 146.835 182.019C146.942 181.829 147.782 181.367 149.275 181.367C150.767 181.367 151.607 181.829 151.726 182.019C151.619 182.22 150.767 182.67 149.275 182.67V182.682ZM148.753 190.581C150.139 190.581 151.607 190.213 152.152 189.455C153.763 190.166 154.746 191.078 154.698 191.954C154.698 191.978 154.698 192.002 154.698 192.037C154.497 193.529 151.157 194.358 147.392 193.873C145.828 193.671 144.301 193.233 143.2 192.594C143.188 192.594 143.176 192.582 143.164 192.57C142.998 192.475 142.856 192.38 142.714 192.274C142.572 192.167 142.442 192.061 142.323 191.942C142.3 191.919 142.264 191.895 142.24 191.871C141.968 191.599 141.778 191.291 141.684 190.971C141.684 190.971 141.684 190.971 141.684 190.959C141.625 190.734 141.601 190.509 141.625 190.273C141.921 189.112 143.342 188.508 145.142 188.342L145.106 188.769C145.106 190.036 146.989 190.604 148.742 190.604L148.753 190.581ZM127.84 187.679C127.935 187.975 128.148 188.319 128.575 188.686C129.107 189.136 129.865 189.538 130.706 189.823C131.393 190.048 132.127 190.19 132.79 190.19C133.726 190.19 134.507 189.905 134.744 189.171L134.839 188.804C136.497 189.527 137.657 190.545 137.575 191.741C137.539 191.919 137.456 192.061 137.373 192.203C137.29 192.357 137.184 192.487 137.065 192.605C136.769 192.902 136.39 193.127 135.905 193.292C134.614 193.719 132.755 193.695 130.967 193.352C127.236 192.641 124.323 190.794 124.596 189.325C124.761 188.437 126.028 187.845 127.828 187.679H127.84ZM129.167 186.448L130.221 182.173C130.753 182.611 131.488 183.013 132.317 183.286C133.015 183.511 133.761 183.653 134.425 183.653C134.59 183.653 134.744 183.629 134.898 183.617L134.01 187.229L133.868 187.809L133.726 188.39L133.619 188.84C133.501 188.994 132.53 189.183 131.073 188.709C130.102 188.39 129.498 187.963 129.19 187.644C129.036 187.478 128.953 187.348 128.953 187.277L129.013 187.052L129.155 186.459L129.167 186.448ZM135.206 182.303C135.04 182.457 134.093 182.623 132.684 182.161C131.275 181.699 130.611 181 130.564 180.775C130.73 180.621 131.677 180.455 133.086 180.917C134.543 181.403 135.206 182.125 135.218 182.291C135.218 182.291 135.206 182.291 135.194 182.303H135.206ZM130.031 194.749C132.21 195.128 134.614 195.081 136.355 194.394C136.497 194.346 136.615 194.287 136.734 194.228C136.793 194.204 136.852 194.18 136.9 194.157C136.556 195.779 136.248 197.662 136.118 198.538C131.594 197.662 127.378 196.549 123.743 195.341L124.288 192.12C125.531 193.517 127.852 194.37 130.019 194.749H130.031ZM202.742 154.971C202.694 154.734 202.86 154.498 203.097 154.45L220.41 151.288L220.682 151.241C220.682 151.241 220.742 151.241 220.765 151.241C220.978 151.241 221.168 151.383 221.203 151.596C221.239 151.809 221.109 152.023 220.907 152.094C220.884 152.094 220.872 152.117 220.848 152.117L220.659 152.153L203.251 155.327C203.251 155.327 203.192 155.327 203.168 155.327C202.955 155.327 202.765 155.173 202.73 154.959L202.742 154.971Z" fill="#21242A"/>
<path d="M273.996 148.363C273.996 148.363 273.854 148.316 273.677 148.268C273.499 148.221 273.25 148.15 272.942 148.067C272.789 148.031 272.623 147.984 272.445 147.948C272.054 147.854 271.604 147.759 271.083 147.676C268.36 147.191 264.061 146.847 259.608 148.15C259.3 148.244 259.111 148.576 259.206 148.884C259.3 149.192 259.632 149.369 259.94 149.275C260.508 149.109 261.077 148.979 261.633 148.872C261.846 148.825 262.06 148.789 262.285 148.754C263.848 148.493 265.375 148.41 266.761 148.446C267.685 148.469 268.549 148.529 269.331 148.623C269.97 148.694 270.562 148.789 271.071 148.884C271.071 148.884 271.095 148.884 271.107 148.884C271.214 148.908 271.308 148.919 271.403 148.943C272.753 149.204 273.582 149.476 273.606 149.476C273.665 149.5 273.736 149.512 273.795 149.512C274.044 149.512 274.269 149.358 274.352 149.109C274.458 148.801 274.293 148.469 273.973 148.363H273.996Z" fill="#21242A"/>
<path d="M116.164 50.8781L123.613 54.0992C123.684 54.1347 123.767 54.1465 123.85 54.1465C124.075 54.1465 124.3 54.0163 124.395 53.7913C124.525 53.4952 124.395 53.1399 124.087 53.0097L116.638 49.7886C116.342 49.6584 115.987 49.7886 115.856 50.0965C115.726 50.3926 115.856 50.7478 116.164 50.8781Z" fill="#21242A"/>
<path d="M183.913 30.8537C183.996 30.9011 184.091 30.9247 184.186 30.9247C184.399 30.9247 184.6 30.8063 184.707 30.605L189.609 21.2142C189.763 20.93 189.645 20.5629 189.361 20.4208C189.076 20.2668 188.709 20.3853 188.567 20.6695L183.665 30.0603C183.511 30.3445 183.629 30.7116 183.913 30.8537Z" fill="#21242A"/>
<path d="M188.366 34.6893C188.473 34.7604 188.591 34.7959 188.698 34.7959C188.887 34.7959 189.065 34.7012 189.183 34.5354L193.446 28.3656C193.636 28.0933 193.565 27.7262 193.292 27.5367C193.02 27.3472 192.653 27.4183 192.464 27.6906L188.2 33.8604C188.011 34.1327 188.082 34.4998 188.354 34.6893H188.366Z" fill="#21242A"/>
<path d="M124.312 47.8464C124.419 47.9411 124.561 47.9885 124.691 47.9885C124.857 47.9885 125.023 47.9174 125.141 47.7753C125.354 47.5266 125.319 47.1477 125.07 46.9464L119.658 42.3753C119.409 42.1622 119.03 42.1977 118.829 42.4464C118.616 42.6951 118.652 43.074 118.9 43.2753L124.312 47.8464V47.8464Z" fill="#21242A"/>
<path d="M62.6741 75.1318H61.4899V76.316H60.3057V77.5003H62.6741V75.1318Z" fill="#21242A"/>
<path d="M26.4956 76.316H22.7417V77.5003H26.4956V76.316Z" fill="#21242A"/>
<path d="M34.0044 76.316H30.2505V77.5003H34.0044V76.316Z" fill="#21242A"/>
<path d="M18.9764 76.316H15.2224V77.5003H18.9764V76.316Z" fill="#21242A"/>
<path d="M41.512 76.316H37.7581V77.5003H41.512V76.316Z" fill="#21242A"/>
<path d="M56.5391 76.316H52.7852V77.5003H56.5391V76.316Z" fill="#21242A"/>
<path d="M49.0313 76.316H45.2773V77.5003H49.0313V76.316Z" fill="#21242A"/>
<path d="M11.4685 76.316H10.2843V75.1318H9.1001V77.5003H11.4685V76.316Z" fill="#21242A"/>
<path d="M10.2843 52.5948H9.1001V56.3488H10.2843V52.5948Z" fill="#21242A"/>
<path d="M10.2843 45.0872H9.1001V48.8411H10.2843V45.0872Z" fill="#21242A"/>
<path d="M10.2843 67.6241H9.1001V71.3781H10.2843V67.6241Z" fill="#21242A"/>
<path d="M10.2843 60.1165H9.1001V63.8704H10.2843V60.1165Z" fill="#21242A"/>
<path d="M10.2843 37.5681H9.1001V41.3221H10.2843V37.5681Z" fill="#21242A"/>
<path d="M10.2843 30.0603H9.1001V33.8143H10.2843V30.0603Z" fill="#21242A"/>
<path d="M10.2843 25.1221H11.4685V23.9379H9.1001V26.3063H10.2843V25.1221Z" fill="#21242A"/>
<path d="M41.5118 23.9379H37.7578V25.1221H41.5118V23.9379Z" fill="#21242A"/>
<path d="M56.5391 23.9379H52.7852V25.1221H56.5391V23.9379Z" fill="#21242A"/>
<path d="M26.4956 23.9379H22.7417V25.1221H26.4956V23.9379Z" fill="#21242A"/>
<path d="M34.0044 23.9379H30.2505V25.1221H34.0044V23.9379Z" fill="#21242A"/>
<path d="M18.9764 23.9379H15.2224V25.1221H18.9764V23.9379Z" fill="#21242A"/>
<path d="M49.0318 23.9379H45.2778V25.1221H49.0318V23.9379Z" fill="#21242A"/>
<path d="M61.4894 26.3063H62.6736V23.9379H60.3052V25.1221H61.4894V26.3063Z" fill="#21242A"/>
<path d="M62.674 52.5948H61.4897V56.3488H62.674V52.5948Z" fill="#21242A"/>
<path d="M62.674 60.1165H61.4897V63.8704H62.674V60.1165Z" fill="#21242A"/>
<path d="M62.674 45.0872H61.4897V48.8411H62.674V45.0872Z" fill="#21242A"/>
<path d="M62.6737 30.0603H61.4895V33.8143H62.6737V30.0603Z" fill="#21242A"/>
<path d="M62.674 67.6241H61.4897V71.3781H62.674V67.6241Z" fill="#21242A"/>
<path d="M62.6737 37.5681H61.4895V41.3221H62.6737V37.5681Z" fill="#21242A"/>
<path d="M297.538 70.3234L297.076 69.2339C295.963 69.7076 294.874 70.2523 293.844 70.8681L294.447 71.8865C295.442 71.3063 296.484 70.7734 297.55 70.3234H297.538Z" fill="#21242A"/>
<path d="M291.57 73.8401L290.847 72.9045C289.9 73.6506 288.988 74.4559 288.135 75.3085L288.976 76.1374C289.793 75.3203 290.658 74.5388 291.57 73.8282V73.8401Z" fill="#21242A"/>
<path d="M294.092 118.924L294.685 117.894C293.69 117.326 292.707 116.674 291.795 115.976L291.073 116.911C292.032 117.645 293.05 118.32 294.092 118.924Z" fill="#21242A"/>
<path d="M300.783 121.672L301.08 120.523C299.966 120.227 298.853 119.86 297.787 119.422L297.337 120.523C298.451 120.985 299.611 121.376 300.783 121.684V121.672Z" fill="#21242A"/>
<path d="M304.217 68.4889L304.052 67.3165C302.856 67.4823 301.66 67.731 300.499 68.0507L300.819 69.1876C301.932 68.8797 303.069 68.6428 304.217 68.4889V68.4889Z" fill="#21242A"/>
<path d="M335.386 90.9175C335.22 89.7214 334.972 88.5254 334.64 87.3649L333.503 87.6846C333.811 88.7978 334.048 89.9346 334.214 91.0833L335.386 90.9175V90.9175Z" fill="#21242A"/>
<path d="M281.315 94.9665V94.8243C281.315 93.7112 281.386 92.598 281.516 91.4967L280.344 91.3546C280.201 92.5033 280.13 93.6638 280.13 94.8362V94.9783H281.315V94.9665Z" fill="#21242A"/>
<path d="M288.336 114.53L289.165 113.689C288.348 112.872 287.567 111.996 286.868 111.084L285.932 111.806C286.667 112.753 287.484 113.677 288.336 114.518V114.53Z" fill="#21242A"/>
<path d="M283.269 84.7945L282.167 84.3445C281.705 85.4695 281.326 86.6182 281.019 87.7905L282.167 88.0866C282.463 86.9734 282.83 85.8603 283.269 84.7945V84.7945Z" fill="#21242A"/>
<path d="M280.379 98.5791C280.545 99.7752 280.782 100.971 281.102 102.132L282.238 101.824C281.93 100.711 281.705 99.562 281.552 98.4252L280.379 98.5791V98.5791Z" fill="#21242A"/>
<path d="M283.896 108.811L284.914 108.219C284.334 107.224 283.813 106.182 283.363 105.116L282.273 105.578C282.735 106.691 283.28 107.781 283.896 108.823V108.811Z" fill="#21242A"/>
<path d="M286.702 78.7658L285.755 78.0553C285.021 79.0145 284.358 80.0329 283.754 81.0869L284.784 81.679C285.352 80.6724 286.004 79.7013 286.702 78.7777V78.7658Z" fill="#21242A"/>
<path d="M311.429 121.173L311.583 122.345C312.779 122.191 313.975 121.942 315.135 121.634L314.827 120.486C313.714 120.782 312.566 121.019 311.429 121.173Z" fill="#21242A"/>
<path d="M321.566 70.6425L320.986 71.6727C321.992 72.2411 322.963 72.8806 323.887 73.5793L324.598 72.6319C323.638 71.9096 322.608 71.2346 321.566 70.6425Z" fill="#21242A"/>
<path d="M314.852 67.9318L314.556 69.0804C315.669 69.3647 316.782 69.7318 317.86 70.1699L318.31 69.0686C317.185 68.6186 316.036 68.2278 314.864 67.9318H314.852Z" fill="#21242A"/>
<path d="M318.12 119.361L318.57 120.45C319.683 119.988 320.773 119.444 321.815 118.84L321.223 117.821C320.228 118.402 319.174 118.923 318.12 119.361Z" fill="#21242A"/>
<path d="M304.502 121.184L304.348 122.357C305.52 122.511 306.704 122.582 307.888 122.582H307.96L307.888 121.397C306.752 121.397 305.615 121.326 304.49 121.184H304.502Z" fill="#21242A"/>
<path d="M307.675 67.0551V68.2393H307.9C308.99 68.2393 310.079 68.3103 311.157 68.4406L311.299 67.2682C310.174 67.1261 309.037 67.0669 307.9 67.0669H307.675V67.0551Z" fill="#21242A"/>
<path d="M332.461 104.985L333.55 105.435C334.012 104.322 334.403 103.162 334.711 102.001L333.562 101.693C333.266 102.806 332.887 103.919 332.449 104.985H332.461Z" fill="#21242A"/>
<path d="M335.658 94.528H334.474V94.824C334.474 95.9845 334.403 97.1451 334.249 98.2937L335.421 98.4477C335.575 97.2516 335.658 96.0319 335.658 94.824V94.528Z" fill="#21242A"/>
<path d="M331.81 80.7083L330.791 81.3122C331.383 82.3069 331.904 83.349 332.354 84.403L333.444 83.9411C332.97 82.8398 332.425 81.7504 331.81 80.7083Z" fill="#21242A"/>
<path d="M324.1 115.893L324.822 116.828C325.782 116.094 326.694 115.289 327.546 114.436L326.705 113.596C325.888 114.413 325.012 115.182 324.1 115.893V115.893Z" fill="#21242A"/>
<path d="M327.345 75.0139L326.516 75.8547C327.345 76.66 328.115 77.5363 328.825 78.4481L329.761 77.7139C329.015 76.7666 328.209 75.8547 327.345 75.0139Z" fill="#21242A"/>
<path d="M329.003 110.978L329.938 111.7C330.672 110.741 331.347 109.723 331.951 108.681L330.921 108.089C330.341 109.083 329.689 110.066 328.991 110.978H329.003Z" fill="#21242A"/>
</svg>
